<svg xmlns="http://www.w3.org/2000/svg" xmlns:xlink="http://www.w3.org/1999/xlink" width="600" zoomAndPan="magnify" viewBox="0 0 450 44.999999" height="60" preserveAspectRatio="xMidYMid meet" version="1.0"><defs><g/></defs><rect x="-45" width="540" fill="#ffffff" y="-4.5" height="53.999999" fill-opacity="1"/><rect x="-45" width="540" fill="#ffffff" y="-4.5" height="53.999999" fill-opacity="1"/><rect x="-45" width="540" fill="#000000" y="-4.5" height="53.999999" fill-opacity="1"/><g fill="#ffffff" fill-opacity="1"><g transform="translate(183.959083, 25.681427)"><g><path d="M 2.566406 -1.265625 L 2.566406 -10.152344 L 0.992188 -10.152344 L 0.992188 0 L 7.710938 0 L 7.710938 -1.265625 Z M 2.566406 -1.265625 "/></g></g></g><g fill="#ffffff" fill-opacity="1"><g transform="translate(190.993796, 25.681427)"><g><path d="M 4.640625 0.246094 C 7.296875 0.246094 8.582031 -1.589844 8.582031 -3.832031 C 8.582031 -6.046875 7.296875 -7.878906 4.640625 -7.878906 C 1.984375 -7.878906 0.703125 -6.0625 0.703125 -3.832031 C 0.703125 -1.574219 1.984375 0.246094 4.640625 0.246094 Z M 2.246094 -3.816406 C 2.246094 -5.847656 2.992188 -6.65625 4.640625 -6.65625 C 6.289062 -6.65625 7.039062 -5.847656 7.039062 -3.816406 C 7.039062 -1.785156 6.289062 -0.976562 4.640625 -0.976562 C 2.992188 -0.976562 2.246094 -1.785156 2.246094 -3.816406 Z M 2.246094 -3.816406 "/></g></g></g><g fill="#ffffff" fill-opacity="1"><g transform="translate(199.478301, 25.681427)"><g><path d="M 4.640625 0.246094 C 7.296875 0.246094 8.582031 -1.589844 8.582031 -3.832031 C 8.582031 -6.046875 7.296875 -7.878906 4.640625 -7.878906 C 1.984375 -7.878906 0.703125 -6.0625 0.703125 -3.832031 C 0.703125 -1.574219 1.984375 0.246094 4.640625 0.246094 Z M 2.246094 -3.816406 C 2.246094 -5.847656 2.992188 -6.65625 4.640625 -6.65625 C 6.289062 -6.65625 7.039062 -5.847656 7.039062 -3.816406 C 7.039062 -1.785156 6.289062 -0.976562 4.640625 -0.976562 C 2.992188 -0.976562 2.246094 -1.785156 2.246094 -3.816406 Z M 2.246094 -3.816406 "/></g></g></g><g fill="#ffffff" fill-opacity="1"><g transform="translate(207.962805, 25.681427)"><g><path d="M 6.71875 0 L 8.625 0 L 5.007812 -4.429688 L 8.335938 -7.589844 L 8.335938 -7.632812 L 6.472656 -7.632812 L 3.375 -4.6875 C 3.128906 -4.457031 2.855469 -4.152344 2.597656 -3.832031 L 2.597656 -10.6875 L 1.070312 -10.6875 L 1.070312 0 L 2.597656 0 L 2.597656 -2.136719 L 4.03125 -3.496094 Z M 6.71875 0 "/></g></g></g><g fill="#ffffff" fill-opacity="1"><g transform="translate(216.142087, 25.681427)"><g><path d="M 0.871094 -8.78125 L 2.792969 -8.78125 L 2.792969 -10.152344 L 0.871094 -10.152344 Z M 1.070312 0 L 2.597656 0 L 2.597656 -7.632812 L 1.070312 -7.632812 Z M 1.070312 0 "/></g></g></g><g fill="#ffffff" fill-opacity="1"><g transform="translate(219.010545, 25.681427)"><g><path d="M 5.359375 -7.878906 C 3.894531 -7.878906 3.054688 -7.054688 2.597656 -5.925781 L 2.597656 -7.632812 L 1.070312 -7.632812 L 1.070312 0 L 2.597656 0 L 2.597656 -3.222656 C 2.597656 -5.648438 3.421875 -6.613281 4.917969 -6.613281 C 5.878906 -6.613281 6.613281 -6.230469 6.613281 -4.625 L 6.613281 0 L 8.136719 0 L 8.136719 -4.765625 C 8.136719 -6.765625 7.390625 -7.878906 5.359375 -7.878906 Z M 5.359375 -7.878906 "/></g></g></g><g fill="#ffffff" fill-opacity="1"><g transform="translate(227.266135, 25.681427)"><g><path d="M 7.039062 -7.632812 L 7.039062 -6.414062 C 6.535156 -7.3125 5.632812 -7.832031 4.289062 -7.832031 C 1.832031 -7.832031 0.6875 -6.261719 0.6875 -4.015625 C 0.6875 -1.769531 1.832031 -0.199219 4.289062 -0.199219 C 5.632812 -0.199219 6.535156 -0.640625 7.039062 -1.542969 L 7.039062 -0.078125 C 7.039062 1.496094 6.320312 2.046875 4.65625 2.046875 C 3.128906 2.046875 2.457031 1.433594 2.367188 0.414062 L 0.839844 0.414062 C 0.976562 2.246094 2.320312 3.222656 4.640625 3.222656 C 7.496094 3.222656 8.566406 2.046875 8.566406 -0.03125 L 8.566406 -7.632812 Z M 4.65625 -1.375 C 2.960938 -1.375 2.230469 -2.078125 2.230469 -4.015625 C 2.230469 -5.953125 2.960938 -6.65625 4.65625 -6.65625 C 6.261719 -6.65625 7.039062 -5.894531 7.039062 -4.015625 C 7.039062 -2.136719 6.261719 -1.375 4.65625 -1.375 Z M 4.65625 -1.375 "/></g></g></g><g fill="#ffffff" fill-opacity="1"><g transform="translate(236.071121, 25.681427)"><g/></g></g><g fill="#ffffff" fill-opacity="1"><g transform="translate(239.031143, 25.681427)"><g><path d="M 6.457031 -7.632812 L 6.457031 -4.414062 C 6.457031 -2.136719 5.589844 -1.023438 4.230469 -1.023438 C 3.207031 -1.023438 2.441406 -1.40625 2.441406 -3.007812 L 2.441406 -7.632812 L 0.917969 -7.632812 L 0.917969 -2.871094 C 0.917969 -0.871094 1.726562 0.246094 3.757812 0.246094 C 5.191406 0.246094 6.015625 -0.550781 6.457031 -1.664062 L 6.457031 0 L 7.984375 0 L 7.984375 -7.632812 Z M 6.457031 -7.632812 "/></g></g></g><g fill="#ffffff" fill-opacity="1"><g transform="translate(247.286734, 25.681427)"><g><path d="M 5.390625 -7.878906 C 4.015625 -7.878906 3.085938 -7.3125 2.566406 -6.320312 L 2.566406 -7.632812 L 1.039062 -7.632812 L 1.039062 3.054688 L 2.566406 3.054688 L 2.566406 -1.3125 C 3.085938 -0.320312 4.015625 0.246094 5.390625 0.246094 C 7.847656 0.246094 8.949219 -1.574219 8.949219 -3.816406 C 8.949219 -6.0625 7.847656 -7.878906 5.390625 -7.878906 Z M 5.070312 -0.976562 C 3.464844 -0.976562 2.566406 -1.863281 2.566406 -3.816406 C 2.566406 -5.773438 3.464844 -6.65625 5.070312 -6.65625 C 6.765625 -6.65625 7.40625 -5.710938 7.40625 -3.816406 C 7.40625 -1.925781 6.765625 -0.976562 5.070312 -0.976562 Z M 5.070312 -0.976562 "/></g></g></g><g fill="#ffffff" fill-opacity="1"><g transform="translate(256.137507, 25.681427)"><g><path d="M 4 -3.726562 L 5.023438 -3.726562 C 7.3125 -3.726562 9.070312 -4.871094 9.070312 -7.207031 C 9.070312 -8.960938 7.96875 -10.429688 5.253906 -10.429688 C 1.953125 -10.429688 1.085938 -8.382812 0.992188 -6.640625 L 2.640625 -6.640625 C 2.703125 -8.183594 3.496094 -9.128906 5.253906 -9.128906 C 6.75 -9.128906 7.421875 -8.230469 7.421875 -7.070312 C 7.421875 -5.894531 6.871094 -4.992188 4.855469 -4.992188 L 4 -4.992188 Z M 4.121094 0 L 5.941406 0 L 5.941406 -1.464844 L 4.121094 -1.464844 Z M 4.121094 0 "/></g></g></g><g fill="#cb0000" fill-opacity="1"><g transform="translate(103.272569, 40.044778)"><g><path d="M 5.96875 0.257812 C 9.328125 0.257812 10.75 -1.375 10.917969 -3.953125 L 9.296875 -3.953125 C 9.160156 -2.136719 8.136719 -1.039062 5.941406 -1.039062 C 3.527344 -1.039062 2.488281 -2.441406 2.488281 -5.085938 C 2.488281 -7.726562 3.574219 -9.128906 5.984375 -9.128906 C 8.09375 -9.128906 9.070312 -8.121094 9.269531 -6.382812 L 10.871094 -6.382812 C 10.640625 -8.902344 9.253906 -10.429688 6.015625 -10.429688 C 2.429688 -10.429688 0.839844 -8.0625 0.839844 -5.085938 C 0.839844 -2.0625 2.382812 0.257812 5.96875 0.257812 Z M 5.96875 0.257812 "/></g></g></g><g fill="#cb0000" fill-opacity="1"><g transform="translate(114.153049, 40.044778)"><g><path d="M 5.359375 -7.878906 C 3.894531 -7.878906 3.054688 -7.054688 2.597656 -5.925781 L 2.597656 -10.6875 L 1.070312 -10.6875 L 1.070312 0 L 2.597656 0 L 2.597656 -3.222656 C 2.597656 -5.648438 3.421875 -6.613281 4.917969 -6.613281 C 5.878906 -6.613281 6.613281 -6.230469 6.613281 -4.625 L 6.613281 0 L 8.136719 0 L 8.136719 -4.765625 C 8.136719 -6.765625 7.390625 -7.878906 5.359375 -7.878906 Z M 5.359375 -7.878906 "/></g></g></g><g fill="#cb0000" fill-opacity="1"><g transform="translate(122.408639, 40.044778)"><g><path d="M 4.609375 -0.886719 C 3.296875 -0.886719 2.320312 -1.464844 2.199219 -3.390625 L 8.214844 -3.390625 C 8.246094 -3.589844 8.246094 -3.769531 8.246094 -3.96875 C 8.246094 -6.152344 6.992188 -7.878906 4.566406 -7.878906 C 1.953125 -7.878906 0.703125 -6.0625 0.703125 -3.832031 C 0.703125 -1.574219 1.847656 0.246094 4.566406 0.246094 C 7.253906 0.246094 8.09375 -1.253906 8.230469 -2.304688 L 6.824219 -2.304688 C 6.613281 -1.511719 6 -0.886719 4.609375 -0.886719 Z M 4.582031 -6.75 C 5.941406 -6.75 6.703125 -6.046875 6.78125 -4.503906 L 2.214844 -4.503906 C 2.398438 -6.199219 3.265625 -6.75 4.582031 -6.75 Z M 4.582031 -6.75 "/></g></g></g><g fill="#cb0000" fill-opacity="1"><g transform="translate(130.496354, 40.044778)"><g><path d="M 0.703125 -3.816406 C 0.703125 -1.542969 2.0625 0.246094 4.640625 0.246094 C 7.054688 0.246094 8.289062 -1.253906 8.351562 -2.945312 L 6.917969 -2.945312 C 6.78125 -1.863281 6.121094 -0.976562 4.640625 -0.976562 C 3.160156 -0.976562 2.246094 -1.679688 2.246094 -3.816406 C 2.246094 -5.910156 3.175781 -6.65625 4.671875 -6.65625 C 6.121094 -6.65625 6.71875 -5.800781 6.839844 -4.777344 L 8.277344 -4.777344 C 8.199219 -6.566406 6.992188 -7.878906 4.609375 -7.878906 C 2.046875 -7.878906 0.703125 -6.09375 0.703125 -3.816406 Z M 0.703125 -3.816406 "/></g></g></g><g fill="#cb0000" fill-opacity="1"><g transform="translate(138.660381, 40.044778)"><g><path d="M 6.71875 0 L 8.625 0 L 5.007812 -4.429688 L 8.335938 -7.589844 L 8.335938 -7.632812 L 6.472656 -7.632812 L 3.375 -4.6875 C 3.128906 -4.457031 2.855469 -4.152344 2.597656 -3.832031 L 2.597656 -10.6875 L 1.070312 -10.6875 L 1.070312 0 L 2.597656 0 L 2.597656 -2.136719 L 4.03125 -3.496094 Z M 6.71875 0 "/></g></g></g><g fill="#cb0000" fill-opacity="1"><g transform="translate(146.839663, 40.044778)"><g/></g></g><g fill="#cb0000" fill-opacity="1"><g transform="translate(149.799685, 40.044778)"><g><path d="M 8.351562 -10.152344 L 8.351562 -0.992188 C 8.121094 -1.527344 7.847656 -2.152344 7.632812 -2.566406 L 3.710938 -10.152344 L 0.992188 -10.152344 L 0.992188 0 L 2.566406 0 L 2.566406 -9.160156 C 2.75 -8.671875 3.007812 -8.136719 3.296875 -7.558594 L 7.207031 0 L 9.925781 0 L 9.925781 -10.152344 Z M 8.351562 -10.152344 "/></g></g></g><g fill="#cb0000" fill-opacity="1"><g transform="translate(159.917121, 40.044778)"><g><path d="M 6.457031 -7.632812 L 6.457031 -4.414062 C 6.457031 -2.136719 5.589844 -1.023438 4.230469 -1.023438 C 3.207031 -1.023438 2.441406 -1.40625 2.441406 -3.007812 L 2.441406 -7.632812 L 0.917969 -7.632812 L 0.917969 -2.871094 C 0.917969 -0.871094 1.726562 0.246094 3.757812 0.246094 C 5.191406 0.246094 6.015625 -0.550781 6.457031 -1.664062 L 6.457031 0 L 7.984375 0 L 7.984375 -7.632812 Z M 6.457031 -7.632812 "/></g></g></g><g fill="#cb0000" fill-opacity="1"><g transform="translate(168.172712, 40.044778)"><g><path d="M 10.566406 -7.878906 C 9.054688 -7.878906 8.214844 -7.054688 7.773438 -5.910156 C 7.496094 -7.191406 6.71875 -7.878906 5.28125 -7.878906 C 3.863281 -7.878906 3.039062 -7.085938 2.597656 -5.96875 L 2.597656 -7.632812 L 1.070312 -7.632812 L 1.070312 0 L 2.597656 0 L 2.597656 -3.222656 C 2.597656 -5.648438 3.390625 -6.613281 4.765625 -6.613281 C 5.773438 -6.613281 6.382812 -6.078125 6.382812 -4.625 L 6.382812 0 L 7.878906 0 L 7.878906 -3.222656 C 7.878906 -5.648438 8.640625 -6.613281 10.046875 -6.613281 C 11.054688 -6.613281 11.664062 -6.078125 11.664062 -4.625 L 11.664062 0 L 13.191406 0 L 13.191406 -4.765625 C 13.191406 -6.765625 12.382812 -7.878906 10.566406 -7.878906 Z M 10.566406 -7.878906 "/></g></g></g><g fill="#cb0000" fill-opacity="1"><g transform="translate(181.4797, 40.044778)"><g><path d="M 5.390625 -7.878906 C 4.015625 -7.878906 3.085938 -7.3125 2.566406 -6.320312 L 2.566406 -10.6875 L 1.039062 -10.6875 L 1.039062 0 L 2.566406 0 L 2.566406 -1.3125 C 3.085938 -0.320312 4.015625 0.246094 5.390625 0.246094 C 7.847656 0.246094 8.949219 -1.574219 8.949219 -3.816406 C 8.949219 -6.0625 7.847656 -7.878906 5.390625 -7.878906 Z M 5.070312 -0.976562 C 3.464844 -0.976562 2.566406 -1.863281 2.566406 -3.816406 C 2.566406 -5.773438 3.464844 -6.65625 5.070312 -6.65625 C 6.765625 -6.65625 7.40625 -5.710938 7.40625 -3.816406 C 7.40625 -1.925781 6.765625 -0.976562 5.070312 -0.976562 Z M 5.070312 -0.976562 "/></g></g></g><g fill="#cb0000" fill-opacity="1"><g transform="translate(190.330468, 40.044778)"><g><path d="M 4.609375 -0.886719 C 3.296875 -0.886719 2.320312 -1.464844 2.199219 -3.390625 L 8.214844 -3.390625 C 8.246094 -3.589844 8.246094 -3.769531 8.246094 -3.96875 C 8.246094 -6.152344 6.992188 -7.878906 4.566406 -7.878906 C 1.953125 -7.878906 0.703125 -6.0625 0.703125 -3.832031 C 0.703125 -1.574219 1.847656 0.246094 4.566406 0.246094 C 7.253906 0.246094 8.09375 -1.253906 8.230469 -2.304688 L 6.824219 -2.304688 C 6.613281 -1.511719 6 -0.886719 4.609375 -0.886719 Z M 4.582031 -6.75 C 5.941406 -6.75 6.703125 -6.046875 6.78125 -4.503906 L 2.214844 -4.503906 C 2.398438 -6.199219 3.265625 -6.75 4.582031 -6.75 Z M 4.582031 -6.75 "/></g></g></g><g fill="#cb0000" fill-opacity="1"><g transform="translate(198.418182, 40.044778)"><g><path d="M 5.28125 -7.757812 C 3.863281 -7.757812 3.039062 -6.917969 2.582031 -5.785156 L 2.582031 -7.632812 L 1.070312 -7.632812 L 1.070312 0 L 2.597656 0 L 2.597656 -2.917969 C 2.597656 -4.992188 3.085938 -6.277344 5.128906 -6.277344 L 5.511719 -6.277344 L 5.511719 -7.757812 Z M 5.28125 -7.757812 "/></g></g></g><g fill="#cb0000" fill-opacity="1"><g transform="translate(203.606301, 40.044778)"><g><path d="M 5.785156 -10.152344 L 0.992188 -10.152344 L 0.992188 0 L 2.582031 0 L 2.582031 -4 L 5.785156 -4 C 8.046875 -4 8.949219 -5.4375 8.949219 -7.085938 C 8.949219 -8.703125 8.046875 -10.152344 5.785156 -10.152344 Z M 5.40625 -5.269531 L 2.582031 -5.269531 L 2.582031 -8.886719 L 5.40625 -8.886719 C 6.839844 -8.886719 7.296875 -8.121094 7.296875 -7.085938 C 7.296875 -6.046875 6.839844 -5.269531 5.40625 -5.269531 Z M 5.40625 -5.269531 "/></g></g></g><g fill="#cb0000" fill-opacity="1"><g transform="translate(212.365505, 40.044778)"><g><path d="M 1.070312 0 L 2.597656 0 L 2.597656 -10.6875 L 1.070312 -10.6875 Z M 1.070312 0 "/></g></g></g><g fill="#cb0000" fill-opacity="1"><g transform="translate(215.233958, 40.044778)"><g><path d="M 3.375 0.199219 C 4.992188 0.199219 5.832031 -0.761719 6.136719 -1.726562 C 6.136719 -1.113281 6.167969 -0.59375 6.230469 0 L 7.621094 0 C 7.558594 -0.71875 7.542969 -1.175781 7.542969 -1.742188 L 7.542969 -5.527344 C 7.542969 -6.933594 6.503906 -7.894531 4.398438 -7.894531 C 2.230469 -7.894531 1.023438 -6.871094 1.007812 -5.253906 L 2.535156 -5.253906 C 2.609375 -6.214844 3.207031 -6.71875 4.457031 -6.71875 C 5.773438 -6.71875 6.136719 -6.246094 6.136719 -5.558594 C 6.136719 -5.023438 5.800781 -4.792969 5.070312 -4.671875 L 3.160156 -4.351562 C 1.449219 -4.0625 0.839844 -3.265625 0.839844 -2.046875 C 0.839844 -0.640625 1.816406 0.199219 3.375 0.199219 Z M 3.695312 -0.976562 C 2.902344 -0.976562 2.367188 -1.375 2.367188 -2.105469 C 2.367188 -2.808594 2.777344 -3.175781 3.726562 -3.390625 L 4.777344 -3.632812 C 5.238281 -3.742188 5.726562 -3.863281 6.136719 -4.167969 L 6.136719 -3.710938 C 6.136719 -2.183594 5.296875 -0.976562 3.695312 -0.976562 Z M 3.695312 -0.976562 "/></g></g></g><g fill="#cb0000" fill-opacity="1"><g transform="translate(222.909627, 40.044778)"><g><path d="M 4.015625 0 L 5.527344 0 L 5.527344 -1.222656 L 3.238281 -1.222656 L 3.238281 -6.457031 L 5.679688 -6.457031 L 5.679688 -7.632812 L 3.238281 -7.632812 L 3.238281 -9.359375 L 2.472656 -9.359375 L 1.847656 -7.800781 L 0.257812 -7.253906 L 0.257812 -6.457031 L 1.710938 -6.457031 L 1.710938 -2.246094 C 1.710938 -0.71875 2.167969 0 4.015625 0 Z M 4.015625 0 "/></g></g></g><g fill="#cb0000" fill-opacity="1"><g transform="translate(228.219842, 40.044778)"><g><path d="M 4.609375 -0.886719 C 3.296875 -0.886719 2.320312 -1.464844 2.199219 -3.390625 L 8.214844 -3.390625 C 8.246094 -3.589844 8.246094 -3.769531 8.246094 -3.96875 C 8.246094 -6.152344 6.992188 -7.878906 4.566406 -7.878906 C 1.953125 -7.878906 0.703125 -6.0625 0.703125 -3.832031 C 0.703125 -1.574219 1.847656 0.246094 4.566406 0.246094 C 7.253906 0.246094 8.09375 -1.253906 8.230469 -2.304688 L 6.824219 -2.304688 C 6.613281 -1.511719 6 -0.886719 4.609375 -0.886719 Z M 4.582031 -6.75 C 5.941406 -6.75 6.703125 -6.046875 6.78125 -4.503906 L 2.214844 -4.503906 C 2.398438 -6.199219 3.265625 -6.75 4.582031 -6.75 Z M 4.582031 -6.75 "/></g></g></g><g fill="#cb0000" fill-opacity="1"><g transform="translate(236.307556, 40.044778)"><g/></g></g><g fill="#cb0000" fill-opacity="1"><g transform="translate(239.267573, 40.044778)"><g><path d="M 5.984375 0.257812 C 9.621094 0.257812 11.132812 -2.105469 11.132812 -5.085938 C 11.132812 -8.015625 9.621094 -10.429688 5.984375 -10.429688 C 2.351562 -10.429688 0.839844 -8.03125 0.839844 -5.085938 C 0.839844 -2.09375 2.351562 0.257812 5.984375 0.257812 Z M 2.488281 -5.085938 C 2.488281 -7.757812 3.496094 -9.128906 5.984375 -9.128906 C 8.472656 -9.128906 9.480469 -7.757812 9.480469 -5.085938 C 9.480469 -2.414062 8.472656 -1.039062 5.984375 -1.039062 C 3.496094 -1.039062 2.488281 -2.414062 2.488281 -5.085938 Z M 2.488281 -5.085938 "/></g></g></g><g fill="#cb0000" fill-opacity="1"><g transform="translate(250.438017, 40.044778)"><g><path d="M 5.359375 -7.878906 C 3.894531 -7.878906 3.054688 -7.054688 2.597656 -5.925781 L 2.597656 -7.632812 L 1.070312 -7.632812 L 1.070312 0 L 2.597656 0 L 2.597656 -3.222656 C 2.597656 -5.648438 3.421875 -6.613281 4.917969 -6.613281 C 5.878906 -6.613281 6.613281 -6.230469 6.613281 -4.625 L 6.613281 0 L 8.136719 0 L 8.136719 -4.765625 C 8.136719 -6.765625 7.390625 -7.878906 5.359375 -7.878906 Z M 5.359375 -7.878906 "/></g></g></g><g fill="#cb0000" fill-opacity="1"><g transform="translate(258.693603, 40.044778)"><g/></g></g><g fill="#cb0000" fill-opacity="1"><g transform="translate(261.65362, 40.044778)"><g><path d="M 5.984375 0.257812 C 9.621094 0.257812 11.132812 -2.105469 11.132812 -5.085938 C 11.132812 -8.015625 9.621094 -10.429688 5.984375 -10.429688 C 2.351562 -10.429688 0.839844 -8.03125 0.839844 -5.085938 C 0.839844 -2.09375 2.351562 0.257812 5.984375 0.257812 Z M 2.488281 -5.085938 C 2.488281 -7.757812 3.496094 -9.128906 5.984375 -9.128906 C 8.472656 -9.128906 9.480469 -7.757812 9.480469 -5.085938 C 9.480469 -2.414062 8.472656 -1.039062 5.984375 -1.039062 C 3.496094 -1.039062 2.488281 -2.414062 2.488281 -5.085938 Z M 2.488281 -5.085938 "/></g></g></g><g fill="#cb0000" fill-opacity="1"><g transform="translate(272.824065, 40.044778)"><g><path d="M 6.457031 -7.632812 L 6.457031 -4.414062 C 6.457031 -2.136719 5.589844 -1.023438 4.230469 -1.023438 C 3.207031 -1.023438 2.441406 -1.40625 2.441406 -3.007812 L 2.441406 -7.632812 L 0.917969 -7.632812 L 0.917969 -2.871094 C 0.917969 -0.871094 1.726562 0.246094 3.757812 0.246094 C 5.191406 0.246094 6.015625 -0.550781 6.457031 -1.664062 L 6.457031 0 L 7.984375 0 L 7.984375 -7.632812 Z M 6.457031 -7.632812 "/></g></g></g><g fill="#cb0000" fill-opacity="1"><g transform="translate(281.079661, 40.044778)"><g><path d="M 5.28125 -7.757812 C 3.863281 -7.757812 3.039062 -6.917969 2.582031 -5.785156 L 2.582031 -7.632812 L 1.070312 -7.632812 L 1.070312 0 L 2.597656 0 L 2.597656 -2.917969 C 2.597656 -4.992188 3.085938 -6.277344 5.128906 -6.277344 L 5.511719 -6.277344 L 5.511719 -7.757812 Z M 5.28125 -7.757812 "/></g></g></g><g fill="#cb0000" fill-opacity="1"><g transform="translate(286.26779, 40.044778)"><g/></g></g><g fill="#cb0000" fill-opacity="1"><g transform="translate(289.227807, 40.044778)"><g><path d="M 5.785156 -10.152344 L 0.992188 -10.152344 L 0.992188 0 L 2.582031 0 L 2.582031 -4 L 5.785156 -4 C 8.046875 -4 8.949219 -5.4375 8.949219 -7.085938 C 8.949219 -8.703125 8.046875 -10.152344 5.785156 -10.152344 Z M 5.40625 -5.269531 L 2.582031 -5.269531 L 2.582031 -8.886719 L 5.40625 -8.886719 C 6.839844 -8.886719 7.296875 -8.121094 7.296875 -7.085938 C 7.296875 -6.046875 6.839844 -5.269531 5.40625 -5.269531 Z M 5.40625 -5.269531 "/></g></g></g><g fill="#cb0000" fill-opacity="1"><g transform="translate(297.987011, 40.044778)"><g><path d="M 1.070312 0 L 2.597656 0 L 2.597656 -10.6875 L 1.070312 -10.6875 Z M 1.070312 0 "/></g></g></g><g fill="#cb0000" fill-opacity="1"><g transform="translate(300.855473, 40.044778)"><g><path d="M 3.375 0.199219 C 4.992188 0.199219 5.832031 -0.761719 6.136719 -1.726562 C 6.136719 -1.113281 6.167969 -0.59375 6.230469 0 L 7.621094 0 C 7.558594 -0.71875 7.542969 -1.175781 7.542969 -1.742188 L 7.542969 -5.527344 C 7.542969 -6.933594 6.503906 -7.894531 4.398438 -7.894531 C 2.230469 -7.894531 1.023438 -6.871094 1.007812 -5.253906 L 2.535156 -5.253906 C 2.609375 -6.214844 3.207031 -6.71875 4.457031 -6.71875 C 5.773438 -6.71875 6.136719 -6.246094 6.136719 -5.558594 C 6.136719 -5.023438 5.800781 -4.792969 5.070312 -4.671875 L 3.160156 -4.351562 C 1.449219 -4.0625 0.839844 -3.265625 0.839844 -2.046875 C 0.839844 -0.640625 1.816406 0.199219 3.375 0.199219 Z M 3.695312 -0.976562 C 2.902344 -0.976562 2.367188 -1.375 2.367188 -2.105469 C 2.367188 -2.808594 2.777344 -3.175781 3.726562 -3.390625 L 4.777344 -3.632812 C 5.238281 -3.742188 5.726562 -3.863281 6.136719 -4.167969 L 6.136719 -3.710938 C 6.136719 -2.183594 5.296875 -0.976562 3.695312 -0.976562 Z M 3.695312 -0.976562 "/></g></g></g><g fill="#cb0000" fill-opacity="1"><g transform="translate(308.531152, 40.044778)"><g><path d="M 4.015625 0 L 5.527344 0 L 5.527344 -1.222656 L 3.238281 -1.222656 L 3.238281 -6.457031 L 5.679688 -6.457031 L 5.679688 -7.632812 L 3.238281 -7.632812 L 3.238281 -9.359375 L 2.472656 -9.359375 L 1.847656 -7.800781 L 0.257812 -7.253906 L 0.257812 -6.457031 L 1.710938 -6.457031 L 1.710938 -2.246094 C 1.710938 -0.71875 2.167969 0 4.015625 0 Z M 4.015625 0 "/></g></g></g><g fill="#cb0000" fill-opacity="1"><g transform="translate(313.841367, 40.044778)"><g><path d="M 1.785156 0 L 3.3125 0 L 3.3125 -6.457031 L 5.449219 -6.457031 L 5.449219 -7.632812 L 3.191406 -7.632812 L 3.191406 -9.542969 L 5.910156 -9.542969 L 5.910156 -10.6875 L 4.246094 -10.6875 C 2.398438 -10.6875 1.785156 -10.03125 1.785156 -8.808594 L 1.785156 -7.695312 L 0.488281 -7.253906 L 0.488281 -6.457031 L 1.785156 -6.457031 Z M 1.785156 0 "/></g></g></g><g fill="#cb0000" fill-opacity="1"><g transform="translate(318.953188, 40.044778)"><g><path d="M 4.640625 0.246094 C 7.296875 0.246094 8.582031 -1.589844 8.582031 -3.832031 C 8.582031 -6.046875 7.296875 -7.878906 4.640625 -7.878906 C 1.984375 -7.878906 0.703125 -6.0625 0.703125 -3.832031 C 0.703125 -1.574219 1.984375 0.246094 4.640625 0.246094 Z M 2.246094 -3.816406 C 2.246094 -5.847656 2.992188 -6.65625 4.640625 -6.65625 C 6.289062 -6.65625 7.039062 -5.847656 7.039062 -3.816406 C 7.039062 -1.785156 6.289062 -0.976562 4.640625 -0.976562 C 2.992188 -0.976562 2.246094 -1.785156 2.246094 -3.816406 Z M 2.246094 -3.816406 "/></g></g></g><g fill="#cb0000" fill-opacity="1"><g transform="translate(327.437689, 40.044778)"><g><path d="M 5.28125 -7.757812 C 3.863281 -7.757812 3.039062 -6.917969 2.582031 -5.785156 L 2.582031 -7.632812 L 1.070312 -7.632812 L 1.070312 0 L 2.597656 0 L 2.597656 -2.917969 C 2.597656 -4.992188 3.085938 -6.277344 5.128906 -6.277344 L 5.511719 -6.277344 L 5.511719 -7.757812 Z M 5.28125 -7.757812 "/></g></g></g><g fill="#cb0000" fill-opacity="1"><g transform="translate(332.625819, 40.044778)"><g><path d="M 10.566406 -7.878906 C 9.054688 -7.878906 8.214844 -7.054688 7.773438 -5.910156 C 7.496094 -7.191406 6.71875 -7.878906 5.28125 -7.878906 C 3.863281 -7.878906 3.039062 -7.085938 2.597656 -5.96875 L 2.597656 -7.632812 L 1.070312 -7.632812 L 1.070312 0 L 2.597656 0 L 2.597656 -3.222656 C 2.597656 -5.648438 3.390625 -6.613281 4.765625 -6.613281 C 5.773438 -6.613281 6.382812 -6.078125 6.382812 -4.625 L 6.382812 0 L 7.878906 0 L 7.878906 -3.222656 C 7.878906 -5.648438 8.640625 -6.613281 10.046875 -6.613281 C 11.054688 -6.613281 11.664062 -6.078125 11.664062 -4.625 L 11.664062 0 L 13.191406 0 L 13.191406 -4.765625 C 13.191406 -6.765625 12.382812 -7.878906 10.566406 -7.878906 Z M 10.566406 -7.878906 "/></g></g></g></svg>