<svg xmlns="http://www.w3.org/2000/svg" xmlns:xlink="http://www.w3.org/1999/xlink" width="600" zoomAndPan="magnify" viewBox="0 0 450 44.999999" height="60" preserveAspectRatio="xMidYMid meet" version="1.0"><defs><g/></defs><rect x="-45" width="540" fill="#ffffff" y="-4.5" height="53.999999" fill-opacity="1"/><rect x="-45" width="540" fill="#ffffff" y="-4.5" height="53.999999" fill-opacity="1"/><rect x="-45" width="540" fill="#000000" y="-4.5" height="53.999999" fill-opacity="1"/><g fill="#ffffff" fill-opacity="1"><g transform="translate(148.040948, 25.681427)"><g><path d="M 8.78125 -2.625 C 8.78125 -4.046875 8.136719 -4.488281 7.117188 -4.824219 C 8.246094 -5.113281 9.101562 -6.015625 9.101562 -7.40625 C 9.101562 -9.085938 7.96875 -10.152344 5.847656 -10.152344 L 0.992188 -10.152344 L 0.992188 0 L 2.566406 0 L 2.566406 -4.398438 L 5.128906 -4.398438 C 6.445312 -4.398438 7.253906 -3.863281 7.253906 -2.398438 L 7.253906 -1.601562 C 7.253906 -0.777344 7.359375 -0.257812 7.453125 0 L 8.992188 0 C 8.917969 -0.289062 8.78125 -0.839844 8.78125 -1.664062 Z M 5.742188 -5.558594 L 2.566406 -5.558594 L 2.566406 -8.886719 L 5.679688 -8.886719 C 6.917969 -8.886719 7.453125 -8.289062 7.453125 -7.296875 C 7.453125 -6.214844 7.039062 -5.558594 5.742188 -5.558594 Z M 5.742188 -5.558594 "/></g></g></g><g fill="#ffffff" fill-opacity="1"><g transform="translate(157.257986, 25.681427)"><g><path d="M 4.609375 -0.886719 C 3.296875 -0.886719 2.320312 -1.464844 2.199219 -3.390625 L 8.214844 -3.390625 C 8.246094 -3.589844 8.246094 -3.769531 8.246094 -3.96875 C 8.246094 -6.152344 6.992188 -7.878906 4.566406 -7.878906 C 1.953125 -7.878906 0.703125 -6.0625 0.703125 -3.832031 C 0.703125 -1.574219 1.847656 0.246094 4.566406 0.246094 C 7.253906 0.246094 8.09375 -1.253906 8.230469 -2.304688 L 6.824219 -2.304688 C 6.613281 -1.511719 6 -0.886719 4.609375 -0.886719 Z M 4.582031 -6.75 C 5.941406 -6.75 6.703125 -6.046875 6.78125 -4.503906 L 2.214844 -4.503906 C 2.398438 -6.199219 3.265625 -6.75 4.582031 -6.75 Z M 4.582031 -6.75 "/></g></g></g><g fill="#ffffff" fill-opacity="1"><g transform="translate(165.345703, 25.681427)"><g><path d="M 0.519531 -2.550781 C 0.519531 -0.992188 1.542969 0.246094 4.0625 0.246094 C 6.277344 0.246094 7.296875 -0.566406 7.296875 -2.136719 C 7.296875 -3.3125 6.78125 -4.183594 4.886719 -4.472656 L 3.238281 -4.71875 C 2.414062 -4.839844 2.183594 -5.222656 2.183594 -5.679688 C 2.183594 -6.289062 2.65625 -6.765625 3.832031 -6.765625 C 5.007812 -6.765625 5.574219 -6.167969 5.648438 -5.464844 L 7.175781 -5.464844 C 7.070312 -6.902344 5.847656 -7.894531 3.878906 -7.894531 C 1.878906 -7.894531 0.703125 -7.007812 0.703125 -5.542969 C 0.703125 -4.382812 1.421875 -3.648438 2.75 -3.449219 L 4.640625 -3.160156 C 5.449219 -3.039062 5.800781 -2.6875 5.800781 -2.0625 C 5.800781 -1.359375 5.464844 -0.886719 4.105469 -0.886719 C 2.625 -0.886719 2 -1.617188 1.9375 -2.550781 Z M 0.519531 -2.550781 "/></g></g></g><g fill="#ffffff" fill-opacity="1"><g transform="translate(172.426192, 25.681427)"><g><path d="M 4.609375 -0.886719 C 3.296875 -0.886719 2.320312 -1.464844 2.199219 -3.390625 L 8.214844 -3.390625 C 8.246094 -3.589844 8.246094 -3.769531 8.246094 -3.96875 C 8.246094 -6.152344 6.992188 -7.878906 4.566406 -7.878906 C 1.953125 -7.878906 0.703125 -6.0625 0.703125 -3.832031 C 0.703125 -1.574219 1.847656 0.246094 4.566406 0.246094 C 7.253906 0.246094 8.09375 -1.253906 8.230469 -2.304688 L 6.824219 -2.304688 C 6.613281 -1.511719 6 -0.886719 4.609375 -0.886719 Z M 4.582031 -6.75 C 5.941406 -6.75 6.703125 -6.046875 6.78125 -4.503906 L 2.214844 -4.503906 C 2.398438 -6.199219 3.265625 -6.75 4.582031 -6.75 Z M 4.582031 -6.75 "/></g></g></g><g fill="#ffffff" fill-opacity="1"><g transform="translate(180.51391, 25.681427)"><g><path d="M 1.070312 0 L 2.597656 0 L 2.597656 -10.6875 L 1.070312 -10.6875 Z M 1.070312 0 "/></g></g></g><g fill="#ffffff" fill-opacity="1"><g transform="translate(183.382368, 25.681427)"><g><path d="M 1.070312 0 L 2.597656 0 L 2.597656 -10.6875 L 1.070312 -10.6875 Z M 1.070312 0 "/></g></g></g><g fill="#ffffff" fill-opacity="1"><g transform="translate(186.250825, 25.681427)"><g/></g></g><g fill="#ffffff" fill-opacity="1"><g transform="translate(189.210847, 25.681427)"><g><path d="M 6.734375 -7.632812 L 4.640625 -2.183594 L 4.351562 -1.265625 L 4.03125 -2.183594 L 1.96875 -7.632812 L 0.398438 -7.632812 L 3.28125 0 L 3.832031 0 L 3.113281 1.832031 L 0.855469 1.832031 L 0.855469 3.054688 L 2.167969 3.054688 C 4.015625 3.054688 4.398438 2.289062 5.023438 0.671875 L 8.214844 -7.632812 Z M 6.734375 -7.632812 "/></g></g></g><g fill="#ffffff" fill-opacity="1"><g transform="translate(196.978085, 25.681427)"><g><path d="M 4.640625 0.246094 C 7.296875 0.246094 8.582031 -1.589844 8.582031 -3.832031 C 8.582031 -6.046875 7.296875 -7.878906 4.640625 -7.878906 C 1.984375 -7.878906 0.703125 -6.0625 0.703125 -3.832031 C 0.703125 -1.574219 1.984375 0.246094 4.640625 0.246094 Z M 2.246094 -3.816406 C 2.246094 -5.847656 2.992188 -6.65625 4.640625 -6.65625 C 6.289062 -6.65625 7.039062 -5.847656 7.039062 -3.816406 C 7.039062 -1.785156 6.289062 -0.976562 4.640625 -0.976562 C 2.992188 -0.976562 2.246094 -1.785156 2.246094 -3.816406 Z M 2.246094 -3.816406 "/></g></g></g><g fill="#ffffff" fill-opacity="1"><g transform="translate(205.462591, 25.681427)"><g><path d="M 6.457031 -7.632812 L 6.457031 -4.414062 C 6.457031 -2.136719 5.589844 -1.023438 4.230469 -1.023438 C 3.207031 -1.023438 2.441406 -1.40625 2.441406 -3.007812 L 2.441406 -7.632812 L 0.917969 -7.632812 L 0.917969 -2.871094 C 0.917969 -0.871094 1.726562 0.246094 3.757812 0.246094 C 5.191406 0.246094 6.015625 -0.550781 6.457031 -1.664062 L 6.457031 0 L 7.984375 0 L 7.984375 -7.632812 Z M 6.457031 -7.632812 "/></g></g></g><g fill="#ffffff" fill-opacity="1"><g transform="translate(213.718182, 25.681427)"><g><path d="M 5.28125 -7.757812 C 3.863281 -7.757812 3.039062 -6.917969 2.582031 -5.785156 L 2.582031 -7.632812 L 1.070312 -7.632812 L 1.070312 0 L 2.597656 0 L 2.597656 -2.917969 C 2.597656 -4.992188 3.085938 -6.277344 5.128906 -6.277344 L 5.511719 -6.277344 L 5.511719 -7.757812 Z M 5.28125 -7.757812 "/></g></g></g><g fill="#ffffff" fill-opacity="1"><g transform="translate(218.906307, 25.681427)"><g/></g></g><g fill="#ffffff" fill-opacity="1"><g transform="translate(221.866328, 25.681427)"><g><path d="M 8.351562 -10.152344 L 8.351562 -0.992188 C 8.121094 -1.527344 7.847656 -2.152344 7.632812 -2.566406 L 3.710938 -10.152344 L 0.992188 -10.152344 L 0.992188 0 L 2.566406 0 L 2.566406 -9.160156 C 2.75 -8.671875 3.007812 -8.136719 3.296875 -7.558594 L 7.207031 0 L 9.925781 0 L 9.925781 -10.152344 Z M 8.351562 -10.152344 "/></g></g></g><g fill="#ffffff" fill-opacity="1"><g transform="translate(231.983765, 25.681427)"><g><path d="M 5.785156 -10.152344 L 0.992188 -10.152344 L 0.992188 0 L 2.582031 0 L 2.582031 -4 L 5.785156 -4 C 8.046875 -4 8.949219 -5.4375 8.949219 -7.085938 C 8.949219 -8.703125 8.046875 -10.152344 5.785156 -10.152344 Z M 5.40625 -5.269531 L 2.582031 -5.269531 L 2.582031 -8.886719 L 5.40625 -8.886719 C 6.839844 -8.886719 7.296875 -8.121094 7.296875 -7.085938 C 7.296875 -6.046875 6.839844 -5.269531 5.40625 -5.269531 Z M 5.40625 -5.269531 "/></g></g></g><g fill="#ffffff" fill-opacity="1"><g transform="translate(240.742969, 25.681427)"><g/></g></g><g fill="#ffffff" fill-opacity="1"><g transform="translate(243.702986, 25.681427)"><g><path d="M 4.640625 0.246094 C 7.296875 0.246094 8.582031 -1.589844 8.582031 -3.832031 C 8.582031 -6.046875 7.296875 -7.878906 4.640625 -7.878906 C 1.984375 -7.878906 0.703125 -6.0625 0.703125 -3.832031 C 0.703125 -1.574219 1.984375 0.246094 4.640625 0.246094 Z M 2.246094 -3.816406 C 2.246094 -5.847656 2.992188 -6.65625 4.640625 -6.65625 C 6.289062 -6.65625 7.039062 -5.847656 7.039062 -3.816406 C 7.039062 -1.785156 6.289062 -0.976562 4.640625 -0.976562 C 2.992188 -0.976562 2.246094 -1.785156 2.246094 -3.816406 Z M 2.246094 -3.816406 "/></g></g></g><g fill="#ffffff" fill-opacity="1"><g transform="translate(252.187487, 25.681427)"><g><path d="M 5.359375 -7.878906 C 3.894531 -7.878906 3.054688 -7.054688 2.597656 -5.925781 L 2.597656 -7.632812 L 1.070312 -7.632812 L 1.070312 0 L 2.597656 0 L 2.597656 -3.222656 C 2.597656 -5.648438 3.421875 -6.613281 4.917969 -6.613281 C 5.878906 -6.613281 6.613281 -6.230469 6.613281 -4.625 L 6.613281 0 L 8.136719 0 L 8.136719 -4.765625 C 8.136719 -6.765625 7.390625 -7.878906 5.359375 -7.878906 Z M 5.359375 -7.878906 "/></g></g></g><g fill="#ffffff" fill-opacity="1"><g transform="translate(260.443073, 25.681427)"><g/></g></g><g fill="#ffffff" fill-opacity="1"><g transform="translate(263.40309, 25.681427)"><g><path d="M 8.351562 -10.152344 L 8.351562 -0.992188 C 8.121094 -1.527344 7.847656 -2.152344 7.632812 -2.566406 L 3.710938 -10.152344 L 0.992188 -10.152344 L 0.992188 0 L 2.566406 0 L 2.566406 -9.160156 C 2.75 -8.671875 3.007812 -8.136719 3.296875 -7.558594 L 7.207031 0 L 9.925781 0 L 9.925781 -10.152344 Z M 8.351562 -10.152344 "/></g></g></g><g fill="#ffffff" fill-opacity="1"><g transform="translate(273.520522, 25.681427)"><g><path d="M 5.785156 -10.152344 L 0.992188 -10.152344 L 0.992188 0 L 2.582031 0 L 2.582031 -4 L 5.785156 -4 C 8.046875 -4 8.949219 -5.4375 8.949219 -7.085938 C 8.949219 -8.703125 8.046875 -10.152344 5.785156 -10.152344 Z M 5.40625 -5.269531 L 2.582031 -5.269531 L 2.582031 -8.886719 L 5.40625 -8.886719 C 6.839844 -8.886719 7.296875 -8.121094 7.296875 -7.085938 C 7.296875 -6.046875 6.839844 -5.269531 5.40625 -5.269531 Z M 5.40625 -5.269531 "/></g></g></g><g fill="#ffffff" fill-opacity="1"><g transform="translate(282.279725, 25.681427)"><g><path d="M 2.566406 -1.265625 L 2.566406 -4.582031 L 8.199219 -4.582031 L 8.199219 -5.816406 L 2.566406 -5.816406 L 2.566406 -8.886719 L 8.65625 -8.886719 L 8.65625 -10.152344 L 0.992188 -10.152344 L 0.992188 0 L 8.703125 0 L 8.703125 -1.265625 Z M 2.566406 -1.265625 "/></g></g></g><g fill="#ffffff" fill-opacity="1"><g transform="translate(291.099972, 25.681427)"><g><path d="M 10.246094 0 L 6.398438 -5.128906 L 10.078125 -10.152344 L 8.214844 -10.152344 L 5.449219 -6.382812 L 2.625 -10.152344 L 0.703125 -10.152344 L 4.429688 -5.160156 L 0.609375 0 L 2.519531 0 L 5.359375 -3.910156 L 8.277344 0 Z M 10.246094 0 "/></g></g></g><g fill="#cb0000" fill-opacity="1"><g transform="translate(98.208316, 40.044778)"><g><path d="M 5.785156 -10.152344 L 0.992188 -10.152344 L 0.992188 0 L 2.582031 0 L 2.582031 -4 L 5.785156 -4 C 8.046875 -4 8.949219 -5.4375 8.949219 -7.085938 C 8.949219 -8.703125 8.046875 -10.152344 5.785156 -10.152344 Z M 5.40625 -5.269531 L 2.582031 -5.269531 L 2.582031 -8.886719 L 5.40625 -8.886719 C 6.839844 -8.886719 7.296875 -8.121094 7.296875 -7.085938 C 7.296875 -6.046875 6.839844 -5.269531 5.40625 -5.269531 Z M 5.40625 -5.269531 "/></g></g></g><g fill="#cb0000" fill-opacity="1"><g transform="translate(106.967524, 40.044778)"><g><path d="M 6.457031 -7.632812 L 6.457031 -4.414062 C 6.457031 -2.136719 5.589844 -1.023438 4.230469 -1.023438 C 3.207031 -1.023438 2.441406 -1.40625 2.441406 -3.007812 L 2.441406 -7.632812 L 0.917969 -7.632812 L 0.917969 -2.871094 C 0.917969 -0.871094 1.726562 0.246094 3.757812 0.246094 C 5.191406 0.246094 6.015625 -0.550781 6.457031 -1.664062 L 6.457031 0 L 7.984375 0 L 7.984375 -7.632812 Z M 6.457031 -7.632812 "/></g></g></g><g fill="#cb0000" fill-opacity="1"><g transform="translate(115.223113, 40.044778)"><g><path d="M 4.015625 0 L 5.527344 0 L 5.527344 -1.222656 L 3.238281 -1.222656 L 3.238281 -6.457031 L 5.679688 -6.457031 L 5.679688 -7.632812 L 3.238281 -7.632812 L 3.238281 -9.359375 L 2.472656 -9.359375 L 1.847656 -7.800781 L 0.257812 -7.253906 L 0.257812 -6.457031 L 1.710938 -6.457031 L 1.710938 -2.246094 C 1.710938 -0.71875 2.167969 0 4.015625 0 Z M 4.015625 0 "/></g></g></g><g fill="#cb0000" fill-opacity="1"><g transform="translate(120.533331, 40.044778)"><g/></g></g><g fill="#cb0000" fill-opacity="1"><g transform="translate(123.493353, 40.044778)"><g><path d="M 0.871094 -8.78125 L 2.792969 -8.78125 L 2.792969 -10.152344 L 0.871094 -10.152344 Z M 1.070312 0 L 2.597656 0 L 2.597656 -7.632812 L 1.070312 -7.632812 Z M 1.070312 0 "/></g></g></g><g fill="#cb0000" fill-opacity="1"><g transform="translate(126.36181, 40.044778)"><g><path d="M 4.015625 0 L 5.527344 0 L 5.527344 -1.222656 L 3.238281 -1.222656 L 3.238281 -6.457031 L 5.679688 -6.457031 L 5.679688 -7.632812 L 3.238281 -7.632812 L 3.238281 -9.359375 L 2.472656 -9.359375 L 1.847656 -7.800781 L 0.257812 -7.253906 L 0.257812 -6.457031 L 1.710938 -6.457031 L 1.710938 -2.246094 C 1.710938 -0.71875 2.167969 0 4.015625 0 Z M 4.015625 0 "/></g></g></g><g fill="#cb0000" fill-opacity="1"><g transform="translate(131.67203, 40.044778)"><g/></g></g><g fill="#cb0000" fill-opacity="1"><g transform="translate(134.632052, 40.044778)"><g><path d="M 4.640625 0.246094 C 7.296875 0.246094 8.582031 -1.589844 8.582031 -3.832031 C 8.582031 -6.046875 7.296875 -7.878906 4.640625 -7.878906 C 1.984375 -7.878906 0.703125 -6.0625 0.703125 -3.832031 C 0.703125 -1.574219 1.984375 0.246094 4.640625 0.246094 Z M 2.246094 -3.816406 C 2.246094 -5.847656 2.992188 -6.65625 4.640625 -6.65625 C 6.289062 -6.65625 7.039062 -5.847656 7.039062 -3.816406 C 7.039062 -1.785156 6.289062 -0.976562 4.640625 -0.976562 C 2.992188 -0.976562 2.246094 -1.785156 2.246094 -3.816406 Z M 2.246094 -3.816406 "/></g></g></g><g fill="#cb0000" fill-opacity="1"><g transform="translate(143.116558, 40.044778)"><g><path d="M 5.359375 -7.878906 C 3.894531 -7.878906 3.054688 -7.054688 2.597656 -5.925781 L 2.597656 -7.632812 L 1.070312 -7.632812 L 1.070312 0 L 2.597656 0 L 2.597656 -3.222656 C 2.597656 -5.648438 3.421875 -6.613281 4.917969 -6.613281 C 5.878906 -6.613281 6.613281 -6.230469 6.613281 -4.625 L 6.613281 0 L 8.136719 0 L 8.136719 -4.765625 C 8.136719 -6.765625 7.390625 -7.878906 5.359375 -7.878906 Z M 5.359375 -7.878906 "/></g></g></g><g fill="#cb0000" fill-opacity="1"><g transform="translate(151.372149, 40.044778)"><g/></g></g><g fill="#cb0000" fill-opacity="1"><g transform="translate(154.33217, 40.044778)"><g><path d="M 3.375 0.199219 C 4.992188 0.199219 5.832031 -0.761719 6.136719 -1.726562 C 6.136719 -1.113281 6.167969 -0.59375 6.230469 0 L 7.621094 0 C 7.558594 -0.71875 7.542969 -1.175781 7.542969 -1.742188 L 7.542969 -5.527344 C 7.542969 -6.933594 6.503906 -7.894531 4.398438 -7.894531 C 2.230469 -7.894531 1.023438 -6.871094 1.007812 -5.253906 L 2.535156 -5.253906 C 2.609375 -6.214844 3.207031 -6.71875 4.457031 -6.71875 C 5.773438 -6.71875 6.136719 -6.246094 6.136719 -5.558594 C 6.136719 -5.023438 5.800781 -4.792969 5.070312 -4.671875 L 3.160156 -4.351562 C 1.449219 -4.0625 0.839844 -3.265625 0.839844 -2.046875 C 0.839844 -0.640625 1.816406 0.199219 3.375 0.199219 Z M 3.695312 -0.976562 C 2.902344 -0.976562 2.367188 -1.375 2.367188 -2.105469 C 2.367188 -2.808594 2.777344 -3.175781 3.726562 -3.390625 L 4.777344 -3.632812 C 5.238281 -3.742188 5.726562 -3.863281 6.136719 -4.167969 L 6.136719 -3.710938 C 6.136719 -2.183594 5.296875 -0.976562 3.695312 -0.976562 Z M 3.695312 -0.976562 "/></g></g></g><g fill="#cb0000" fill-opacity="1"><g transform="translate(162.007844, 40.044778)"><g><path d="M 6.457031 -7.632812 L 6.457031 -4.414062 C 6.457031 -2.136719 5.589844 -1.023438 4.230469 -1.023438 C 3.207031 -1.023438 2.441406 -1.40625 2.441406 -3.007812 L 2.441406 -7.632812 L 0.917969 -7.632812 L 0.917969 -2.871094 C 0.917969 -0.871094 1.726562 0.246094 3.757812 0.246094 C 5.191406 0.246094 6.015625 -0.550781 6.457031 -1.664062 L 6.457031 0 L 7.984375 0 L 7.984375 -7.632812 Z M 6.457031 -7.632812 "/></g></g></g><g fill="#cb0000" fill-opacity="1"><g transform="translate(170.263435, 40.044778)"><g><path d="M 0.703125 -3.816406 C 0.703125 -1.542969 2.0625 0.246094 4.640625 0.246094 C 7.054688 0.246094 8.289062 -1.253906 8.351562 -2.945312 L 6.917969 -2.945312 C 6.78125 -1.863281 6.121094 -0.976562 4.640625 -0.976562 C 3.160156 -0.976562 2.246094 -1.679688 2.246094 -3.816406 C 2.246094 -5.910156 3.175781 -6.65625 4.671875 -6.65625 C 6.121094 -6.65625 6.71875 -5.800781 6.839844 -4.777344 L 8.277344 -4.777344 C 8.199219 -6.566406 6.992188 -7.878906 4.609375 -7.878906 C 2.046875 -7.878906 0.703125 -6.09375 0.703125 -3.816406 Z M 0.703125 -3.816406 "/></g></g></g><g fill="#cb0000" fill-opacity="1"><g transform="translate(178.427461, 40.044778)"><g><path d="M 4.015625 0 L 5.527344 0 L 5.527344 -1.222656 L 3.238281 -1.222656 L 3.238281 -6.457031 L 5.679688 -6.457031 L 5.679688 -7.632812 L 3.238281 -7.632812 L 3.238281 -9.359375 L 2.472656 -9.359375 L 1.847656 -7.800781 L 0.257812 -7.253906 L 0.257812 -6.457031 L 1.710938 -6.457031 L 1.710938 -2.246094 C 1.710938 -0.71875 2.167969 0 4.015625 0 Z M 4.015625 0 "/></g></g></g><g fill="#cb0000" fill-opacity="1"><g transform="translate(183.737676, 40.044778)"><g><path d="M 0.871094 -8.78125 L 2.792969 -8.78125 L 2.792969 -10.152344 L 0.871094 -10.152344 Z M 1.070312 0 L 2.597656 0 L 2.597656 -7.632812 L 1.070312 -7.632812 Z M 1.070312 0 "/></g></g></g><g fill="#cb0000" fill-opacity="1"><g transform="translate(186.606129, 40.044778)"><g><path d="M 4.640625 0.246094 C 7.296875 0.246094 8.582031 -1.589844 8.582031 -3.832031 C 8.582031 -6.046875 7.296875 -7.878906 4.640625 -7.878906 C 1.984375 -7.878906 0.703125 -6.0625 0.703125 -3.832031 C 0.703125 -1.574219 1.984375 0.246094 4.640625 0.246094 Z M 2.246094 -3.816406 C 2.246094 -5.847656 2.992188 -6.65625 4.640625 -6.65625 C 6.289062 -6.65625 7.039062 -5.847656 7.039062 -3.816406 C 7.039062 -1.785156 6.289062 -0.976562 4.640625 -0.976562 C 2.992188 -0.976562 2.246094 -1.785156 2.246094 -3.816406 Z M 2.246094 -3.816406 "/></g></g></g><g fill="#cb0000" fill-opacity="1"><g transform="translate(195.090631, 40.044778)"><g><path d="M 5.359375 -7.878906 C 3.894531 -7.878906 3.054688 -7.054688 2.597656 -5.925781 L 2.597656 -7.632812 L 1.070312 -7.632812 L 1.070312 0 L 2.597656 0 L 2.597656 -3.222656 C 2.597656 -5.648438 3.421875 -6.613281 4.917969 -6.613281 C 5.878906 -6.613281 6.613281 -6.230469 6.613281 -4.625 L 6.613281 0 L 8.136719 0 L 8.136719 -4.765625 C 8.136719 -6.765625 7.390625 -7.878906 5.359375 -7.878906 Z M 5.359375 -7.878906 "/></g></g></g><g fill="#cb0000" fill-opacity="1"><g transform="translate(203.346216, 40.044778)"><g/></g></g><g fill="#cb0000" fill-opacity="1"><g transform="translate(206.306233, 40.044778)"><g><path d="M 3.375 0.199219 C 4.992188 0.199219 5.832031 -0.761719 6.136719 -1.726562 C 6.136719 -1.113281 6.167969 -0.59375 6.230469 0 L 7.621094 0 C 7.558594 -0.71875 7.542969 -1.175781 7.542969 -1.742188 L 7.542969 -5.527344 C 7.542969 -6.933594 6.503906 -7.894531 4.398438 -7.894531 C 2.230469 -7.894531 1.023438 -6.871094 1.007812 -5.253906 L 2.535156 -5.253906 C 2.609375 -6.214844 3.207031 -6.71875 4.457031 -6.71875 C 5.773438 -6.71875 6.136719 -6.246094 6.136719 -5.558594 C 6.136719 -5.023438 5.800781 -4.792969 5.070312 -4.671875 L 3.160156 -4.351562 C 1.449219 -4.0625 0.839844 -3.265625 0.839844 -2.046875 C 0.839844 -0.640625 1.816406 0.199219 3.375 0.199219 Z M 3.695312 -0.976562 C 2.902344 -0.976562 2.367188 -1.375 2.367188 -2.105469 C 2.367188 -2.808594 2.777344 -3.175781 3.726562 -3.390625 L 4.777344 -3.632812 C 5.238281 -3.742188 5.726562 -3.863281 6.136719 -4.167969 L 6.136719 -3.710938 C 6.136719 -2.183594 5.296875 -0.976562 3.695312 -0.976562 Z M 3.695312 -0.976562 "/></g></g></g><g fill="#cb0000" fill-opacity="1"><g transform="translate(213.981903, 40.044778)"><g><path d="M 7.039062 -7.632812 L 7.039062 -6.414062 C 6.535156 -7.3125 5.632812 -7.832031 4.289062 -7.832031 C 1.832031 -7.832031 0.6875 -6.261719 0.6875 -4.015625 C 0.6875 -1.769531 1.832031 -0.199219 4.289062 -0.199219 C 5.632812 -0.199219 6.535156 -0.640625 7.039062 -1.542969 L 7.039062 -0.078125 C 7.039062 1.496094 6.320312 2.046875 4.65625 2.046875 C 3.128906 2.046875 2.457031 1.433594 2.367188 0.414062 L 0.839844 0.414062 C 0.976562 2.246094 2.320312 3.222656 4.640625 3.222656 C 7.496094 3.222656 8.566406 2.046875 8.566406 -0.03125 L 8.566406 -7.632812 Z M 4.65625 -1.375 C 2.960938 -1.375 2.230469 -2.078125 2.230469 -4.015625 C 2.230469 -5.953125 2.960938 -6.65625 4.65625 -6.65625 C 6.261719 -6.65625 7.039062 -5.894531 7.039062 -4.015625 C 7.039062 -2.136719 6.261719 -1.375 4.65625 -1.375 Z M 4.65625 -1.375 "/></g></g></g><g fill="#cb0000" fill-opacity="1"><g transform="translate(222.786884, 40.044778)"><g><path d="M 3.375 0.199219 C 4.992188 0.199219 5.832031 -0.761719 6.136719 -1.726562 C 6.136719 -1.113281 6.167969 -0.59375 6.230469 0 L 7.621094 0 C 7.558594 -0.71875 7.542969 -1.175781 7.542969 -1.742188 L 7.542969 -5.527344 C 7.542969 -6.933594 6.503906 -7.894531 4.398438 -7.894531 C 2.230469 -7.894531 1.023438 -6.871094 1.007812 -5.253906 L 2.535156 -5.253906 C 2.609375 -6.214844 3.207031 -6.71875 4.457031 -6.71875 C 5.773438 -6.71875 6.136719 -6.246094 6.136719 -5.558594 C 6.136719 -5.023438 5.800781 -4.792969 5.070312 -4.671875 L 3.160156 -4.351562 C 1.449219 -4.0625 0.839844 -3.265625 0.839844 -2.046875 C 0.839844 -0.640625 1.816406 0.199219 3.375 0.199219 Z M 3.695312 -0.976562 C 2.902344 -0.976562 2.367188 -1.375 2.367188 -2.105469 C 2.367188 -2.808594 2.777344 -3.175781 3.726562 -3.390625 L 4.777344 -3.632812 C 5.238281 -3.742188 5.726562 -3.863281 6.136719 -4.167969 L 6.136719 -3.710938 C 6.136719 -2.183594 5.296875 -0.976562 3.695312 -0.976562 Z M 3.695312 -0.976562 "/></g></g></g><g fill="#cb0000" fill-opacity="1"><g transform="translate(230.462553, 40.044778)"><g><path d="M 0.871094 -8.78125 L 2.792969 -8.78125 L 2.792969 -10.152344 L 0.871094 -10.152344 Z M 1.070312 0 L 2.597656 0 L 2.597656 -7.632812 L 1.070312 -7.632812 Z M 1.070312 0 "/></g></g></g><g fill="#cb0000" fill-opacity="1"><g transform="translate(233.331006, 40.044778)"><g><path d="M 5.359375 -7.878906 C 3.894531 -7.878906 3.054688 -7.054688 2.597656 -5.925781 L 2.597656 -7.632812 L 1.070312 -7.632812 L 1.070312 0 L 2.597656 0 L 2.597656 -3.222656 C 2.597656 -5.648438 3.421875 -6.613281 4.917969 -6.613281 C 5.878906 -6.613281 6.613281 -6.230469 6.613281 -4.625 L 6.613281 0 L 8.136719 0 L 8.136719 -4.765625 C 8.136719 -6.765625 7.390625 -7.878906 5.359375 -7.878906 Z M 5.359375 -7.878906 "/></g></g></g><g fill="#cb0000" fill-opacity="1"><g transform="translate(241.586592, 40.044778)"><g/></g></g><g fill="#cb0000" fill-opacity="1"><g transform="translate(244.546609, 40.044778)"><g><path d="M 1.785156 0 L 3.3125 0 L 3.3125 -6.457031 L 5.449219 -6.457031 L 5.449219 -7.632812 L 3.191406 -7.632812 L 3.191406 -9.542969 L 5.910156 -9.542969 L 5.910156 -10.6875 L 4.246094 -10.6875 C 2.398438 -10.6875 1.785156 -10.03125 1.785156 -8.808594 L 1.785156 -7.695312 L 0.488281 -7.253906 L 0.488281 -6.457031 L 1.785156 -6.457031 Z M 1.785156 0 "/></g></g></g><g fill="#cb0000" fill-opacity="1"><g transform="translate(249.65843, 40.044778)"><g><path d="M 4.640625 0.246094 C 7.296875 0.246094 8.582031 -1.589844 8.582031 -3.832031 C 8.582031 -6.046875 7.296875 -7.878906 4.640625 -7.878906 C 1.984375 -7.878906 0.703125 -6.0625 0.703125 -3.832031 C 0.703125 -1.574219 1.984375 0.246094 4.640625 0.246094 Z M 2.246094 -3.816406 C 2.246094 -5.847656 2.992188 -6.65625 4.640625 -6.65625 C 6.289062 -6.65625 7.039062 -5.847656 7.039062 -3.816406 C 7.039062 -1.785156 6.289062 -0.976562 4.640625 -0.976562 C 2.992188 -0.976562 2.246094 -1.785156 2.246094 -3.816406 Z M 2.246094 -3.816406 "/></g></g></g><g fill="#cb0000" fill-opacity="1"><g transform="translate(258.142941, 40.044778)"><g><path d="M 5.28125 -7.757812 C 3.863281 -7.757812 3.039062 -6.917969 2.582031 -5.785156 L 2.582031 -7.632812 L 1.070312 -7.632812 L 1.070312 0 L 2.597656 0 L 2.597656 -2.917969 C 2.597656 -4.992188 3.085938 -6.277344 5.128906 -6.277344 L 5.511719 -6.277344 L 5.511719 -7.757812 Z M 5.28125 -7.757812 "/></g></g></g><g fill="#cb0000" fill-opacity="1"><g transform="translate(263.33107, 40.044778)"><g/></g></g><g fill="#cb0000" fill-opacity="1"><g transform="translate(266.291087, 40.044778)"><g><path d="M 5.359375 -7.878906 C 3.894531 -7.878906 3.054688 -7.054688 2.597656 -5.925781 L 2.597656 -10.6875 L 1.070312 -10.6875 L 1.070312 0 L 2.597656 0 L 2.597656 -3.222656 C 2.597656 -5.648438 3.421875 -6.613281 4.917969 -6.613281 C 5.878906 -6.613281 6.613281 -6.230469 6.613281 -4.625 L 6.613281 0 L 8.136719 0 L 8.136719 -4.765625 C 8.136719 -6.765625 7.390625 -7.878906 5.359375 -7.878906 Z M 5.359375 -7.878906 "/></g></g></g><g fill="#cb0000" fill-opacity="1"><g transform="translate(274.546682, 40.044778)"><g><path d="M 0.871094 -8.78125 L 2.792969 -8.78125 L 2.792969 -10.152344 L 0.871094 -10.152344 Z M 1.070312 0 L 2.597656 0 L 2.597656 -7.632812 L 1.070312 -7.632812 Z M 1.070312 0 "/></g></g></g><g fill="#cb0000" fill-opacity="1"><g transform="translate(277.415145, 40.044778)"><g><path d="M 7.039062 -7.632812 L 7.039062 -6.414062 C 6.535156 -7.3125 5.632812 -7.832031 4.289062 -7.832031 C 1.832031 -7.832031 0.6875 -6.261719 0.6875 -4.015625 C 0.6875 -1.769531 1.832031 -0.199219 4.289062 -0.199219 C 5.632812 -0.199219 6.535156 -0.640625 7.039062 -1.542969 L 7.039062 -0.078125 C 7.039062 1.496094 6.320312 2.046875 4.65625 2.046875 C 3.128906 2.046875 2.457031 1.433594 2.367188 0.414062 L 0.839844 0.414062 C 0.976562 2.246094 2.320312 3.222656 4.640625 3.222656 C 7.496094 3.222656 8.566406 2.046875 8.566406 -0.03125 L 8.566406 -7.632812 Z M 4.65625 -1.375 C 2.960938 -1.375 2.230469 -2.078125 2.230469 -4.015625 C 2.230469 -5.953125 2.960938 -6.65625 4.65625 -6.65625 C 6.261719 -6.65625 7.039062 -5.894531 7.039062 -4.015625 C 7.039062 -2.136719 6.261719 -1.375 4.65625 -1.375 Z M 4.65625 -1.375 "/></g></g></g><g fill="#cb0000" fill-opacity="1"><g transform="translate(286.220126, 40.044778)"><g><path d="M 5.359375 -7.878906 C 3.894531 -7.878906 3.054688 -7.054688 2.597656 -5.925781 L 2.597656 -10.6875 L 1.070312 -10.6875 L 1.070312 0 L 2.597656 0 L 2.597656 -3.222656 C 2.597656 -5.648438 3.421875 -6.613281 4.917969 -6.613281 C 5.878906 -6.613281 6.613281 -6.230469 6.613281 -4.625 L 6.613281 0 L 8.136719 0 L 8.136719 -4.765625 C 8.136719 -6.765625 7.390625 -7.878906 5.359375 -7.878906 Z M 5.359375 -7.878906 "/></g></g></g><g fill="#cb0000" fill-opacity="1"><g transform="translate(294.475721, 40.044778)"><g><path d="M 4.609375 -0.886719 C 3.296875 -0.886719 2.320312 -1.464844 2.199219 -3.390625 L 8.214844 -3.390625 C 8.246094 -3.589844 8.246094 -3.769531 8.246094 -3.96875 C 8.246094 -6.152344 6.992188 -7.878906 4.566406 -7.878906 C 1.953125 -7.878906 0.703125 -6.0625 0.703125 -3.832031 C 0.703125 -1.574219 1.847656 0.246094 4.566406 0.246094 C 7.253906 0.246094 8.09375 -1.253906 8.230469 -2.304688 L 6.824219 -2.304688 C 6.613281 -1.511719 6 -0.886719 4.609375 -0.886719 Z M 4.582031 -6.75 C 5.941406 -6.75 6.703125 -6.046875 6.78125 -4.503906 L 2.214844 -4.503906 C 2.398438 -6.199219 3.265625 -6.75 4.582031 -6.75 Z M 4.582031 -6.75 "/></g></g></g><g fill="#cb0000" fill-opacity="1"><g transform="translate(302.563435, 40.044778)"><g><path d="M 5.28125 -7.757812 C 3.863281 -7.757812 3.039062 -6.917969 2.582031 -5.785156 L 2.582031 -7.632812 L 1.070312 -7.632812 L 1.070312 0 L 2.597656 0 L 2.597656 -2.917969 C 2.597656 -4.992188 3.085938 -6.277344 5.128906 -6.277344 L 5.511719 -6.277344 L 5.511719 -7.757812 Z M 5.28125 -7.757812 "/></g></g></g><g fill="#cb0000" fill-opacity="1"><g transform="translate(307.751564, 40.044778)"><g/></g></g><g fill="#cb0000" fill-opacity="1"><g transform="translate(310.711581, 40.044778)"><g><path d="M 5.28125 -7.757812 C 3.863281 -7.757812 3.039062 -6.917969 2.582031 -5.785156 L 2.582031 -7.632812 L 1.070312 -7.632812 L 1.070312 0 L 2.597656 0 L 2.597656 -2.917969 C 2.597656 -4.992188 3.085938 -6.277344 5.128906 -6.277344 L 5.511719 -6.277344 L 5.511719 -7.757812 Z M 5.28125 -7.757812 "/></g></g></g><g fill="#cb0000" fill-opacity="1"><g transform="translate(315.89971, 40.044778)"><g><path d="M 4.609375 -0.886719 C 3.296875 -0.886719 2.320312 -1.464844 2.199219 -3.390625 L 8.214844 -3.390625 C 8.246094 -3.589844 8.246094 -3.769531 8.246094 -3.96875 C 8.246094 -6.152344 6.992188 -7.878906 4.566406 -7.878906 C 1.953125 -7.878906 0.703125 -6.0625 0.703125 -3.832031 C 0.703125 -1.574219 1.847656 0.246094 4.566406 0.246094 C 7.253906 0.246094 8.09375 -1.253906 8.230469 -2.304688 L 6.824219 -2.304688 C 6.613281 -1.511719 6 -0.886719 4.609375 -0.886719 Z M 4.582031 -6.75 C 5.941406 -6.75 6.703125 -6.046875 6.78125 -4.503906 L 2.214844 -4.503906 C 2.398438 -6.199219 3.265625 -6.75 4.582031 -6.75 Z M 4.582031 -6.75 "/></g></g></g><g fill="#cb0000" fill-opacity="1"><g transform="translate(323.987424, 40.044778)"><g><path d="M 4.015625 0 L 5.527344 0 L 5.527344 -1.222656 L 3.238281 -1.222656 L 3.238281 -6.457031 L 5.679688 -6.457031 L 5.679688 -7.632812 L 3.238281 -7.632812 L 3.238281 -9.359375 L 2.472656 -9.359375 L 1.847656 -7.800781 L 0.257812 -7.253906 L 0.257812 -6.457031 L 1.710938 -6.457031 L 1.710938 -2.246094 C 1.710938 -0.71875 2.167969 0 4.015625 0 Z M 4.015625 0 "/></g></g></g><g fill="#cb0000" fill-opacity="1"><g transform="translate(329.297639, 40.044778)"><g><path d="M 6.457031 -7.632812 L 6.457031 -4.414062 C 6.457031 -2.136719 5.589844 -1.023438 4.230469 -1.023438 C 3.207031 -1.023438 2.441406 -1.40625 2.441406 -3.007812 L 2.441406 -7.632812 L 0.917969 -7.632812 L 0.917969 -2.871094 C 0.917969 -0.871094 1.726562 0.246094 3.757812 0.246094 C 5.191406 0.246094 6.015625 -0.550781 6.457031 -1.664062 L 6.457031 0 L 7.984375 0 L 7.984375 -7.632812 Z M 6.457031 -7.632812 "/></g></g></g><g fill="#cb0000" fill-opacity="1"><g transform="translate(337.553234, 40.044778)"><g><path d="M 5.28125 -7.757812 C 3.863281 -7.757812 3.039062 -6.917969 2.582031 -5.785156 L 2.582031 -7.632812 L 1.070312 -7.632812 L 1.070312 0 L 2.597656 0 L 2.597656 -2.917969 C 2.597656 -4.992188 3.085938 -6.277344 5.128906 -6.277344 L 5.511719 -6.277344 L 5.511719 -7.757812 Z M 5.28125 -7.757812 "/></g></g></g><g fill="#cb0000" fill-opacity="1"><g transform="translate(342.741364, 40.044778)"><g><path d="M 5.359375 -7.878906 C 3.894531 -7.878906 3.054688 -7.054688 2.597656 -5.925781 L 2.597656 -7.632812 L 1.070312 -7.632812 L 1.070312 0 L 2.597656 0 L 2.597656 -3.222656 C 2.597656 -5.648438 3.421875 -6.613281 4.917969 -6.613281 C 5.878906 -6.613281 6.613281 -6.230469 6.613281 -4.625 L 6.613281 0 L 8.136719 0 L 8.136719 -4.765625 C 8.136719 -6.765625 7.390625 -7.878906 5.359375 -7.878906 Z M 5.359375 -7.878906 "/></g></g></g></svg>