<svg xmlns="http://www.w3.org/2000/svg" xmlns:xlink="http://www.w3.org/1999/xlink" width="600" zoomAndPan="magnify" viewBox="0 0 450 44.999999" height="60" preserveAspectRatio="xMidYMid meet" version="1.0"><defs><g/></defs><rect x="-45" width="540" fill="#ffffff" y="-4.5" height="53.999999" fill-opacity="1"/><rect x="-45" width="540" fill="#ffffff" y="-4.5" height="53.999999" fill-opacity="1"/><rect x="-45" width="540" fill="#000000" y="-4.5" height="53.999999" fill-opacity="1"/><g fill="#ffffff" fill-opacity="1"><g transform="translate(142.002618, 25.681427)"><g><path d="M 0.734375 -3.40625 C 0.734375 -1.496094 1.863281 0.246094 5.191406 0.246094 C 8.09375 0.246094 9.3125 -0.917969 9.3125 -2.917969 C 9.3125 -4.597656 8.246094 -5.40625 6.472656 -5.664062 L 3.984375 -6.03125 C 3.039062 -6.167969 2.625 -6.71875 2.625 -7.464844 C 2.625 -8.488281 3.34375 -9.207031 4.992188 -9.207031 C 6.71875 -9.207031 7.527344 -8.398438 7.679688 -7.175781 L 9.207031 -7.175781 C 9.070312 -8.992188 7.863281 -10.429688 5.007812 -10.429688 C 2.289062 -10.429688 1.039062 -9.117188 1.039062 -7.421875 C 1.039062 -5.832031 1.9375 -4.933594 3.664062 -4.6875 L 6.015625 -4.351562 C 7.160156 -4.183594 7.726562 -3.664062 7.726562 -2.71875 C 7.726562 -1.679688 7.238281 -0.976562 5.191406 -0.976562 C 3.191406 -0.976562 2.304688 -1.863281 2.261719 -3.40625 Z M 0.734375 -3.40625 "/></g></g></g><g fill="#ffffff" fill-opacity="1"><g transform="translate(151.280699, 25.681427)"><g><path d="M 5.390625 -7.878906 C 4.015625 -7.878906 3.085938 -7.3125 2.566406 -6.320312 L 2.566406 -7.632812 L 1.039062 -7.632812 L 1.039062 3.054688 L 2.566406 3.054688 L 2.566406 -1.3125 C 3.085938 -0.320312 4.015625 0.246094 5.390625 0.246094 C 7.847656 0.246094 8.949219 -1.574219 8.949219 -3.816406 C 8.949219 -6.0625 7.847656 -7.878906 5.390625 -7.878906 Z M 5.070312 -0.976562 C 3.464844 -0.976562 2.566406 -1.863281 2.566406 -3.816406 C 2.566406 -5.773438 3.464844 -6.65625 5.070312 -6.65625 C 6.765625 -6.65625 7.40625 -5.710938 7.40625 -3.816406 C 7.40625 -1.925781 6.765625 -0.976562 5.070312 -0.976562 Z M 5.070312 -0.976562 "/></g></g></g><g fill="#ffffff" fill-opacity="1"><g transform="translate(160.131471, 25.681427)"><g><path d="M 4.640625 0.246094 C 7.296875 0.246094 8.582031 -1.589844 8.582031 -3.832031 C 8.582031 -6.046875 7.296875 -7.878906 4.640625 -7.878906 C 1.984375 -7.878906 0.703125 -6.0625 0.703125 -3.832031 C 0.703125 -1.574219 1.984375 0.246094 4.640625 0.246094 Z M 2.246094 -3.816406 C 2.246094 -5.847656 2.992188 -6.65625 4.640625 -6.65625 C 6.289062 -6.65625 7.039062 -5.847656 7.039062 -3.816406 C 7.039062 -1.785156 6.289062 -0.976562 4.640625 -0.976562 C 2.992188 -0.976562 2.246094 -1.785156 2.246094 -3.816406 Z M 2.246094 -3.816406 "/></g></g></g><g fill="#ffffff" fill-opacity="1"><g transform="translate(168.615975, 25.681427)"><g><path d="M 4.015625 0 L 5.527344 0 L 5.527344 -1.222656 L 3.238281 -1.222656 L 3.238281 -6.457031 L 5.679688 -6.457031 L 5.679688 -7.632812 L 3.238281 -7.632812 L 3.238281 -9.359375 L 2.472656 -9.359375 L 1.847656 -7.800781 L 0.257812 -7.253906 L 0.257812 -6.457031 L 1.710938 -6.457031 L 1.710938 -2.246094 C 1.710938 -0.71875 2.167969 0 4.015625 0 Z M 4.015625 0 "/></g></g></g><g fill="#ffffff" fill-opacity="1"><g transform="translate(173.926195, 25.681427)"><g/></g></g><g fill="#ffffff" fill-opacity="1"><g transform="translate(176.886216, 25.681427)"><g><path d="M 7.925781 -10.152344 L 5.847656 -6.230469 C 5.589844 -5.726562 5.3125 -5.222656 5.023438 -4.734375 C 4.765625 -5.222656 4.488281 -5.726562 4.230469 -6.230469 L 2.167969 -10.152344 L 0.382812 -10.152344 L 4.246094 -3.359375 L 4.246094 0 L 5.816406 0 L 5.816406 -3.359375 L 9.679688 -10.152344 Z M 7.925781 -10.152344 "/></g></g></g><g fill="#ffffff" fill-opacity="1"><g transform="translate(186.149033, 25.681427)"><g><path d="M 4.640625 0.246094 C 7.296875 0.246094 8.582031 -1.589844 8.582031 -3.832031 C 8.582031 -6.046875 7.296875 -7.878906 4.640625 -7.878906 C 1.984375 -7.878906 0.703125 -6.0625 0.703125 -3.832031 C 0.703125 -1.574219 1.984375 0.246094 4.640625 0.246094 Z M 2.246094 -3.816406 C 2.246094 -5.847656 2.992188 -6.65625 4.640625 -6.65625 C 6.289062 -6.65625 7.039062 -5.847656 7.039062 -3.816406 C 7.039062 -1.785156 6.289062 -0.976562 4.640625 -0.976562 C 2.992188 -0.976562 2.246094 -1.785156 2.246094 -3.816406 Z M 2.246094 -3.816406 "/></g></g></g><g fill="#ffffff" fill-opacity="1"><g transform="translate(194.63354, 25.681427)"><g><path d="M 6.457031 -7.632812 L 6.457031 -4.414062 C 6.457031 -2.136719 5.589844 -1.023438 4.230469 -1.023438 C 3.207031 -1.023438 2.441406 -1.40625 2.441406 -3.007812 L 2.441406 -7.632812 L 0.917969 -7.632812 L 0.917969 -2.871094 C 0.917969 -0.871094 1.726562 0.246094 3.757812 0.246094 C 5.191406 0.246094 6.015625 -0.550781 6.457031 -1.664062 L 6.457031 0 L 7.984375 0 L 7.984375 -7.632812 Z M 6.457031 -7.632812 "/></g></g></g><g fill="#ffffff" fill-opacity="1"><g transform="translate(202.88913, 25.681427)"><g><path d="M 5.28125 -7.757812 C 3.863281 -7.757812 3.039062 -6.917969 2.582031 -5.785156 L 2.582031 -7.632812 L 1.070312 -7.632812 L 1.070312 0 L 2.597656 0 L 2.597656 -2.917969 C 2.597656 -4.992188 3.085938 -6.277344 5.128906 -6.277344 L 5.511719 -6.277344 L 5.511719 -7.757812 Z M 5.28125 -7.757812 "/></g></g></g><g fill="#ffffff" fill-opacity="1"><g transform="translate(208.077255, 25.681427)"><g/></g></g><g fill="#ffffff" fill-opacity="1"><g transform="translate(211.037277, 25.681427)"><g><path d="M 2.566406 -1.265625 L 2.566406 -10.152344 L 0.992188 -10.152344 L 0.992188 0 L 7.710938 0 L 7.710938 -1.265625 Z M 2.566406 -1.265625 "/></g></g></g><g fill="#ffffff" fill-opacity="1"><g transform="translate(218.071991, 25.681427)"><g><path d="M 6.457031 -7.632812 L 6.457031 -4.414062 C 6.457031 -2.136719 5.589844 -1.023438 4.230469 -1.023438 C 3.207031 -1.023438 2.441406 -1.40625 2.441406 -3.007812 L 2.441406 -7.632812 L 0.917969 -7.632812 L 0.917969 -2.871094 C 0.917969 -0.871094 1.726562 0.246094 3.757812 0.246094 C 5.191406 0.246094 6.015625 -0.550781 6.457031 -1.664062 L 6.457031 0 L 7.984375 0 L 7.984375 -7.632812 Z M 6.457031 -7.632812 "/></g></g></g><g fill="#ffffff" fill-opacity="1"><g transform="translate(226.327577, 25.681427)"><g><path d="M 0.703125 -3.816406 C 0.703125 -1.542969 2.0625 0.246094 4.640625 0.246094 C 7.054688 0.246094 8.289062 -1.253906 8.351562 -2.945312 L 6.917969 -2.945312 C 6.78125 -1.863281 6.121094 -0.976562 4.640625 -0.976562 C 3.160156 -0.976562 2.246094 -1.679688 2.246094 -3.816406 C 2.246094 -5.910156 3.175781 -6.65625 4.671875 -6.65625 C 6.121094 -6.65625 6.71875 -5.800781 6.839844 -4.777344 L 8.277344 -4.777344 C 8.199219 -6.566406 6.992188 -7.878906 4.609375 -7.878906 C 2.046875 -7.878906 0.703125 -6.09375 0.703125 -3.816406 Z M 0.703125 -3.816406 "/></g></g></g><g fill="#ffffff" fill-opacity="1"><g transform="translate(234.491598, 25.681427)"><g><path d="M 6.71875 0 L 8.625 0 L 5.007812 -4.429688 L 8.335938 -7.589844 L 8.335938 -7.632812 L 6.472656 -7.632812 L 3.375 -4.6875 C 3.128906 -4.457031 2.855469 -4.152344 2.597656 -3.832031 L 2.597656 -10.6875 L 1.070312 -10.6875 L 1.070312 0 L 2.597656 0 L 2.597656 -2.136719 L 4.03125 -3.496094 Z M 6.71875 0 "/></g></g></g><g fill="#ffffff" fill-opacity="1"><g transform="translate(242.670876, 25.681427)"><g><path d="M 6.734375 -7.632812 L 4.640625 -2.183594 L 4.351562 -1.265625 L 4.03125 -2.183594 L 1.96875 -7.632812 L 0.398438 -7.632812 L 3.28125 0 L 3.832031 0 L 3.113281 1.832031 L 0.855469 1.832031 L 0.855469 3.054688 L 2.167969 3.054688 C 4.015625 3.054688 4.398438 2.289062 5.023438 0.671875 L 8.214844 -7.632812 Z M 6.734375 -7.632812 "/></g></g></g><g fill="#ffffff" fill-opacity="1"><g transform="translate(250.43811, 25.681427)"><g/></g></g><g fill="#ffffff" fill-opacity="1"><g transform="translate(253.398127, 25.681427)"><g><path d="M 8.351562 -10.152344 L 8.351562 -0.992188 C 8.121094 -1.527344 7.847656 -2.152344 7.632812 -2.566406 L 3.710938 -10.152344 L 0.992188 -10.152344 L 0.992188 0 L 2.566406 0 L 2.566406 -9.160156 C 2.75 -8.671875 3.007812 -8.136719 3.296875 -7.558594 L 7.207031 0 L 9.925781 0 L 9.925781 -10.152344 Z M 8.351562 -10.152344 "/></g></g></g><g fill="#ffffff" fill-opacity="1"><g transform="translate(263.515558, 25.681427)"><g><path d="M 6.457031 -7.632812 L 6.457031 -4.414062 C 6.457031 -2.136719 5.589844 -1.023438 4.230469 -1.023438 C 3.207031 -1.023438 2.441406 -1.40625 2.441406 -3.007812 L 2.441406 -7.632812 L 0.917969 -7.632812 L 0.917969 -2.871094 C 0.917969 -0.871094 1.726562 0.246094 3.757812 0.246094 C 5.191406 0.246094 6.015625 -0.550781 6.457031 -1.664062 L 6.457031 0 L 7.984375 0 L 7.984375 -7.632812 Z M 6.457031 -7.632812 "/></g></g></g><g fill="#ffffff" fill-opacity="1"><g transform="translate(271.771144, 25.681427)"><g><path d="M 10.566406 -7.878906 C 9.054688 -7.878906 8.214844 -7.054688 7.773438 -5.910156 C 7.496094 -7.191406 6.71875 -7.878906 5.28125 -7.878906 C 3.863281 -7.878906 3.039062 -7.085938 2.597656 -5.96875 L 2.597656 -7.632812 L 1.070312 -7.632812 L 1.070312 0 L 2.597656 0 L 2.597656 -3.222656 C 2.597656 -5.648438 3.390625 -6.613281 4.765625 -6.613281 C 5.773438 -6.613281 6.382812 -6.078125 6.382812 -4.625 L 6.382812 0 L 7.878906 0 L 7.878906 -3.222656 C 7.878906 -5.648438 8.640625 -6.613281 10.046875 -6.613281 C 11.054688 -6.613281 11.664062 -6.078125 11.664062 -4.625 L 11.664062 0 L 13.191406 0 L 13.191406 -4.765625 C 13.191406 -6.765625 12.382812 -7.878906 10.566406 -7.878906 Z M 10.566406 -7.878906 "/></g></g></g><g fill="#ffffff" fill-opacity="1"><g transform="translate(285.078127, 25.681427)"><g><path d="M 5.390625 -7.878906 C 4.015625 -7.878906 3.085938 -7.3125 2.566406 -6.320312 L 2.566406 -10.6875 L 1.039062 -10.6875 L 1.039062 0 L 2.566406 0 L 2.566406 -1.3125 C 3.085938 -0.320312 4.015625 0.246094 5.390625 0.246094 C 7.847656 0.246094 8.949219 -1.574219 8.949219 -3.816406 C 8.949219 -6.0625 7.847656 -7.878906 5.390625 -7.878906 Z M 5.070312 -0.976562 C 3.464844 -0.976562 2.566406 -1.863281 2.566406 -3.816406 C 2.566406 -5.773438 3.464844 -6.65625 5.070312 -6.65625 C 6.765625 -6.65625 7.40625 -5.710938 7.40625 -3.816406 C 7.40625 -1.925781 6.765625 -0.976562 5.070312 -0.976562 Z M 5.070312 -0.976562 "/></g></g></g><g fill="#ffffff" fill-opacity="1"><g transform="translate(293.928896, 25.681427)"><g><path d="M 4.609375 -0.886719 C 3.296875 -0.886719 2.320312 -1.464844 2.199219 -3.390625 L 8.214844 -3.390625 C 8.246094 -3.589844 8.246094 -3.769531 8.246094 -3.96875 C 8.246094 -6.152344 6.992188 -7.878906 4.566406 -7.878906 C 1.953125 -7.878906 0.703125 -6.0625 0.703125 -3.832031 C 0.703125 -1.574219 1.847656 0.246094 4.566406 0.246094 C 7.253906 0.246094 8.09375 -1.253906 8.230469 -2.304688 L 6.824219 -2.304688 C 6.613281 -1.511719 6 -0.886719 4.609375 -0.886719 Z M 4.582031 -6.75 C 5.941406 -6.75 6.703125 -6.046875 6.78125 -4.503906 L 2.214844 -4.503906 C 2.398438 -6.199219 3.265625 -6.75 4.582031 -6.75 Z M 4.582031 -6.75 "/></g></g></g><g fill="#ffffff" fill-opacity="1"><g transform="translate(302.016618, 25.681427)"><g><path d="M 5.28125 -7.757812 C 3.863281 -7.757812 3.039062 -6.917969 2.582031 -5.785156 L 2.582031 -7.632812 L 1.070312 -7.632812 L 1.070312 0 L 2.597656 0 L 2.597656 -2.917969 C 2.597656 -4.992188 3.085938 -6.277344 5.128906 -6.277344 L 5.511719 -6.277344 L 5.511719 -7.757812 Z M 5.28125 -7.757812 "/></g></g></g><g fill="#cb0000" fill-opacity="1"><g transform="translate(144.842112, 40.044778)"><g><path d="M 7.117188 -5.253906 C 8.109375 -5.421875 9.117188 -6.167969 9.117188 -7.664062 C 9.117188 -9.039062 8.289062 -10.152344 6.167969 -10.152344 L 0.992188 -10.152344 L 0.992188 0 L 6.0625 0 C 8.183594 0 9.253906 -1.113281 9.253906 -2.75 C 9.253906 -4.273438 8.304688 -5.085938 7.117188 -5.253906 Z M 5.800781 -8.886719 C 7.085938 -8.886719 7.464844 -8.382812 7.464844 -7.390625 C 7.464844 -6.351562 6.902344 -5.832031 5.605469 -5.832031 L 2.566406 -5.832031 L 2.566406 -8.886719 Z M 5.878906 -1.265625 L 2.566406 -1.265625 L 2.566406 -4.671875 L 5.605469 -4.671875 C 7.007812 -4.671875 7.605469 -4.046875 7.605469 -2.929688 C 7.605469 -2.03125 7.128906 -1.265625 5.878906 -1.265625 Z M 5.878906 -1.265625 "/></g></g></g><g fill="#cb0000" fill-opacity="1"><g transform="translate(154.05915, 40.044778)"><g><path d="M 0.871094 -8.78125 L 2.792969 -8.78125 L 2.792969 -10.152344 L 0.871094 -10.152344 Z M 1.070312 0 L 2.597656 0 L 2.597656 -7.632812 L 1.070312 -7.632812 Z M 1.070312 0 "/></g></g></g><g fill="#cb0000" fill-opacity="1"><g transform="translate(156.927606, 40.044778)"><g><path d="M 7.085938 -10.6875 L 7.085938 -6.320312 C 6.566406 -7.3125 5.632812 -7.878906 4.261719 -7.878906 C 1.800781 -7.878906 0.703125 -6.0625 0.703125 -3.816406 C 0.703125 -1.574219 1.800781 0.246094 4.261719 0.246094 C 5.632812 0.246094 6.566406 -0.320312 7.085938 -1.3125 L 7.085938 0 L 8.613281 0 L 8.613281 -10.6875 Z M 4.582031 -0.976562 C 2.886719 -0.976562 2.246094 -1.925781 2.246094 -3.816406 C 2.246094 -5.710938 2.886719 -6.65625 4.582031 -6.65625 C 6.183594 -6.65625 7.085938 -5.773438 7.085938 -3.816406 C 7.085938 -1.863281 6.183594 -0.976562 4.582031 -0.976562 Z M 4.582031 -0.976562 "/></g></g></g><g fill="#cb0000" fill-opacity="1"><g transform="translate(165.778377, 40.044778)"><g/></g></g><g fill="#cb0000" fill-opacity="1"><g transform="translate(168.738399, 40.044778)"><g><path d="M 4.015625 0 L 5.527344 0 L 5.527344 -1.222656 L 3.238281 -1.222656 L 3.238281 -6.457031 L 5.679688 -6.457031 L 5.679688 -7.632812 L 3.238281 -7.632812 L 3.238281 -9.359375 L 2.472656 -9.359375 L 1.847656 -7.800781 L 0.257812 -7.253906 L 0.257812 -6.457031 L 1.710938 -6.457031 L 1.710938 -2.246094 C 1.710938 -0.71875 2.167969 0 4.015625 0 Z M 4.015625 0 "/></g></g></g><g fill="#cb0000" fill-opacity="1"><g transform="translate(174.048619, 40.044778)"><g><path d="M 4.640625 0.246094 C 7.296875 0.246094 8.582031 -1.589844 8.582031 -3.832031 C 8.582031 -6.046875 7.296875 -7.878906 4.640625 -7.878906 C 1.984375 -7.878906 0.703125 -6.0625 0.703125 -3.832031 C 0.703125 -1.574219 1.984375 0.246094 4.640625 0.246094 Z M 2.246094 -3.816406 C 2.246094 -5.847656 2.992188 -6.65625 4.640625 -6.65625 C 6.289062 -6.65625 7.039062 -5.847656 7.039062 -3.816406 C 7.039062 -1.785156 6.289062 -0.976562 4.640625 -0.976562 C 2.992188 -0.976562 2.246094 -1.785156 2.246094 -3.816406 Z M 2.246094 -3.816406 "/></g></g></g><g fill="#cb0000" fill-opacity="1"><g transform="translate(182.533125, 40.044778)"><g/></g></g><g fill="#cb0000" fill-opacity="1"><g transform="translate(185.493147, 40.044778)"><g><path d="M 4.640625 0.246094 C 7.296875 0.246094 8.582031 -1.589844 8.582031 -3.832031 C 8.582031 -6.046875 7.296875 -7.878906 4.640625 -7.878906 C 1.984375 -7.878906 0.703125 -6.0625 0.703125 -3.832031 C 0.703125 -1.574219 1.984375 0.246094 4.640625 0.246094 Z M 2.246094 -3.816406 C 2.246094 -5.847656 2.992188 -6.65625 4.640625 -6.65625 C 6.289062 -6.65625 7.039062 -5.847656 7.039062 -3.816406 C 7.039062 -1.785156 6.289062 -0.976562 4.640625 -0.976562 C 2.992188 -0.976562 2.246094 -1.785156 2.246094 -3.816406 Z M 2.246094 -3.816406 "/></g></g></g><g fill="#cb0000" fill-opacity="1"><g transform="translate(193.977653, 40.044778)"><g><path d="M 11.636719 -7.632812 L 9.757812 -1.144531 L 7.558594 -7.632812 L 6.03125 -7.632812 L 3.832031 -1.144531 L 1.953125 -7.632812 L 0.382812 -7.632812 L 2.671875 0 L 4.839844 0 L 6.75 -5.800781 L 8.65625 0 L 10.824219 0 L 13.117188 -7.632812 Z M 11.636719 -7.632812 "/></g></g></g><g fill="#cb0000" fill-opacity="1"><g transform="translate(206.674203, 40.044778)"><g><path d="M 5.359375 -7.878906 C 3.894531 -7.878906 3.054688 -7.054688 2.597656 -5.925781 L 2.597656 -7.632812 L 1.070312 -7.632812 L 1.070312 0 L 2.597656 0 L 2.597656 -3.222656 C 2.597656 -5.648438 3.421875 -6.613281 4.917969 -6.613281 C 5.878906 -6.613281 6.613281 -6.230469 6.613281 -4.625 L 6.613281 0 L 8.136719 0 L 8.136719 -4.765625 C 8.136719 -6.765625 7.390625 -7.878906 5.359375 -7.878906 Z M 5.359375 -7.878906 "/></g></g></g><g fill="#cb0000" fill-opacity="1"><g transform="translate(214.929794, 40.044778)"><g/></g></g><g fill="#cb0000" fill-opacity="1"><g transform="translate(217.889815, 40.044778)"><g><path d="M 6.734375 -7.632812 L 4.640625 -2.183594 L 4.351562 -1.265625 L 4.03125 -2.183594 L 1.96875 -7.632812 L 0.398438 -7.632812 L 3.28125 0 L 3.832031 0 L 3.113281 1.832031 L 0.855469 1.832031 L 0.855469 3.054688 L 2.167969 3.054688 C 4.015625 3.054688 4.398438 2.289062 5.023438 0.671875 L 8.214844 -7.632812 Z M 6.734375 -7.632812 "/></g></g></g><g fill="#cb0000" fill-opacity="1"><g transform="translate(225.657049, 40.044778)"><g><path d="M 4.640625 0.246094 C 7.296875 0.246094 8.582031 -1.589844 8.582031 -3.832031 C 8.582031 -6.046875 7.296875 -7.878906 4.640625 -7.878906 C 1.984375 -7.878906 0.703125 -6.0625 0.703125 -3.832031 C 0.703125 -1.574219 1.984375 0.246094 4.640625 0.246094 Z M 2.246094 -3.816406 C 2.246094 -5.847656 2.992188 -6.65625 4.640625 -6.65625 C 6.289062 -6.65625 7.039062 -5.847656 7.039062 -3.816406 C 7.039062 -1.785156 6.289062 -0.976562 4.640625 -0.976562 C 2.992188 -0.976562 2.246094 -1.785156 2.246094 -3.816406 Z M 2.246094 -3.816406 "/></g></g></g><g fill="#cb0000" fill-opacity="1"><g transform="translate(234.14155, 40.044778)"><g><path d="M 6.457031 -7.632812 L 6.457031 -4.414062 C 6.457031 -2.136719 5.589844 -1.023438 4.230469 -1.023438 C 3.207031 -1.023438 2.441406 -1.40625 2.441406 -3.007812 L 2.441406 -7.632812 L 0.917969 -7.632812 L 0.917969 -2.871094 C 0.917969 -0.871094 1.726562 0.246094 3.757812 0.246094 C 5.191406 0.246094 6.015625 -0.550781 6.457031 -1.664062 L 6.457031 0 L 7.984375 0 L 7.984375 -7.632812 Z M 6.457031 -7.632812 "/></g></g></g><g fill="#cb0000" fill-opacity="1"><g transform="translate(242.397136, 40.044778)"><g><path d="M 5.28125 -7.757812 C 3.863281 -7.757812 3.039062 -6.917969 2.582031 -5.785156 L 2.582031 -7.632812 L 1.070312 -7.632812 L 1.070312 0 L 2.597656 0 L 2.597656 -2.917969 C 2.597656 -4.992188 3.085938 -6.277344 5.128906 -6.277344 L 5.511719 -6.277344 L 5.511719 -7.757812 Z M 5.28125 -7.757812 "/></g></g></g><g fill="#cb0000" fill-opacity="1"><g transform="translate(247.585256, 40.044778)"><g/></g></g><g fill="#cb0000" fill-opacity="1"><g transform="translate(250.545273, 40.044778)"><g><path d="M 8.351562 -10.152344 L 8.351562 -0.992188 C 8.121094 -1.527344 7.847656 -2.152344 7.632812 -2.566406 L 3.710938 -10.152344 L 0.992188 -10.152344 L 0.992188 0 L 2.566406 0 L 2.566406 -9.160156 C 2.75 -8.671875 3.007812 -8.136719 3.296875 -7.558594 L 7.207031 0 L 9.925781 0 L 9.925781 -10.152344 Z M 8.351562 -10.152344 "/></g></g></g><g fill="#cb0000" fill-opacity="1"><g transform="translate(260.662705, 40.044778)"><g><path d="M 6.457031 -7.632812 L 6.457031 -4.414062 C 6.457031 -2.136719 5.589844 -1.023438 4.230469 -1.023438 C 3.207031 -1.023438 2.441406 -1.40625 2.441406 -3.007812 L 2.441406 -7.632812 L 0.917969 -7.632812 L 0.917969 -2.871094 C 0.917969 -0.871094 1.726562 0.246094 3.757812 0.246094 C 5.191406 0.246094 6.015625 -0.550781 6.457031 -1.664062 L 6.457031 0 L 7.984375 0 L 7.984375 -7.632812 Z M 6.457031 -7.632812 "/></g></g></g><g fill="#cb0000" fill-opacity="1"><g transform="translate(268.918291, 40.044778)"><g><path d="M 10.566406 -7.878906 C 9.054688 -7.878906 8.214844 -7.054688 7.773438 -5.910156 C 7.496094 -7.191406 6.71875 -7.878906 5.28125 -7.878906 C 3.863281 -7.878906 3.039062 -7.085938 2.597656 -5.96875 L 2.597656 -7.632812 L 1.070312 -7.632812 L 1.070312 0 L 2.597656 0 L 2.597656 -3.222656 C 2.597656 -5.648438 3.390625 -6.613281 4.765625 -6.613281 C 5.773438 -6.613281 6.382812 -6.078125 6.382812 -4.625 L 6.382812 0 L 7.878906 0 L 7.878906 -3.222656 C 7.878906 -5.648438 8.640625 -6.613281 10.046875 -6.613281 C 11.054688 -6.613281 11.664062 -6.078125 11.664062 -4.625 L 11.664062 0 L 13.191406 0 L 13.191406 -4.765625 C 13.191406 -6.765625 12.382812 -7.878906 10.566406 -7.878906 Z M 10.566406 -7.878906 "/></g></g></g><g fill="#cb0000" fill-opacity="1"><g transform="translate(282.225274, 40.044778)"><g><path d="M 5.390625 -7.878906 C 4.015625 -7.878906 3.085938 -7.3125 2.566406 -6.320312 L 2.566406 -10.6875 L 1.039062 -10.6875 L 1.039062 0 L 2.566406 0 L 2.566406 -1.3125 C 3.085938 -0.320312 4.015625 0.246094 5.390625 0.246094 C 7.847656 0.246094 8.949219 -1.574219 8.949219 -3.816406 C 8.949219 -6.0625 7.847656 -7.878906 5.390625 -7.878906 Z M 5.070312 -0.976562 C 3.464844 -0.976562 2.566406 -1.863281 2.566406 -3.816406 C 2.566406 -5.773438 3.464844 -6.65625 5.070312 -6.65625 C 6.765625 -6.65625 7.40625 -5.710938 7.40625 -3.816406 C 7.40625 -1.925781 6.765625 -0.976562 5.070312 -0.976562 Z M 5.070312 -0.976562 "/></g></g></g><g fill="#cb0000" fill-opacity="1"><g transform="translate(291.076042, 40.044778)"><g><path d="M 4.609375 -0.886719 C 3.296875 -0.886719 2.320312 -1.464844 2.199219 -3.390625 L 8.214844 -3.390625 C 8.246094 -3.589844 8.246094 -3.769531 8.246094 -3.96875 C 8.246094 -6.152344 6.992188 -7.878906 4.566406 -7.878906 C 1.953125 -7.878906 0.703125 -6.0625 0.703125 -3.832031 C 0.703125 -1.574219 1.847656 0.246094 4.566406 0.246094 C 7.253906 0.246094 8.09375 -1.253906 8.230469 -2.304688 L 6.824219 -2.304688 C 6.613281 -1.511719 6 -0.886719 4.609375 -0.886719 Z M 4.582031 -6.75 C 5.941406 -6.75 6.703125 -6.046875 6.78125 -4.503906 L 2.214844 -4.503906 C 2.398438 -6.199219 3.265625 -6.75 4.582031 -6.75 Z M 4.582031 -6.75 "/></g></g></g><g fill="#cb0000" fill-opacity="1"><g transform="translate(299.163755, 40.044778)"><g><path d="M 5.28125 -7.757812 C 3.863281 -7.757812 3.039062 -6.917969 2.582031 -5.785156 L 2.582031 -7.632812 L 1.070312 -7.632812 L 1.070312 0 L 2.597656 0 L 2.597656 -2.917969 C 2.597656 -4.992188 3.085938 -6.277344 5.128906 -6.277344 L 5.511719 -6.277344 L 5.511719 -7.757812 Z M 5.28125 -7.757812 "/></g></g></g></svg>